<?xml version="1.0" standalone="no"?>
<!DOCTYPE svg PUBLIC "-//W3C//DTD SVG 1.1//EN" "http://www.w3.org/Graphics/SVG/1.1/DTD/svg11.dtd" >
<svg xmlns="http://www.w3.org/2000/svg">
  <metadata>Created by iconfont</metadata>
  <defs>
  <font id="iconfont" horiz-adv-x="1024">
    <font-face
      font-family="iconfont"
      font-weight="400"
      font-stretch="normal"
      units-per-em="1024"
      ascent="896"
      descent="-128"
    />
      <missing-glyph />
      
      <glyph glyph-name="yonghu1" unicode="&#59337;" d="M512 384m-490.666667 0a490.666667 490.666667 0 1 1 981.333334 0 490.666667 490.666667 0 1 1-981.333334 0ZM599.68 370.346667a169.386667 169.386667 0 1 1-188.373333 0 257.28 257.28 0 0 1-162.773334-239.573334 26.666667 26.666667 0 0 1 53.333334 0 203.733333 203.733333 0 0 0 407.253333 0 30.506667 30.506667 0 0 1 4.053333-15.146666 30.08 30.08 0 0 1 23.253334-12.586667 26.666667 26.666667 0 0 1 26.666666 26.666667 259.84 259.84 0 0 1-163.413333 240.64z m-94.293333 26.026666A114.773333 114.773333 0 1 0 620.16 512a114.773333 114.773333 0 0 0-114.773333-115.626667z"  horiz-adv-x="1024" />
      
      <glyph glyph-name="zhiding" unicode="&#59338;" d="M962.986667 783.786667H61.013333a39.893333 39.893333 0 0 1 0-79.786667h901.973334a39.893333 39.893333 0 0 1 0 79.573333zM350.293333 395.093333a40.533333 40.533333 0 0 1 28.16 11.52l93.866667 93.866667V4.266667a39.68 39.68 0 0 1 79.36 0V500.48l93.866667-93.653333a39.466667 39.466667 0 0 1 28.16-11.733334 38.613333 38.613333 0 0 1 28.16 11.733334 39.253333 39.253333 0 0 1 0 56.106666l-161.706667 161.706667a39.68 39.68 0 0 1-56.32 0L322.133333 462.933333a39.466667 39.466667 0 0 1 0-56.106666 39.04 39.04 0 0 1 28.16-11.733334z"  horiz-adv-x="1024" />
      
      <glyph glyph-name="zhidi" unicode="&#59340;" d="M962.986667-22.613333H61.013333a39.893333 39.893333 0 0 0 0 79.573333h901.973334a39.893333 39.893333 0 0 0 0-79.573333zM350.293333 366.08a40.533333 40.533333 0 0 0 28.16-11.52l93.866667-93.866667V756.693333a39.68 39.68 0 1 0 79.36 0v-496l93.866667 93.653334a39.466667 39.466667 0 0 0 28.16 11.733333 38.613333 38.613333 0 0 0 28.16-11.733333 39.253333 39.253333 0 0 0 0-56.106667l-161.706667-161.706667a39.68 39.68 0 0 0-56.32 0L322.133333 298.666667a39.466667 39.466667 0 0 0 0 56.106666 39.04 39.04 0 0 0 28.16 11.306667z"  horiz-adv-x="1024" />
      
      <glyph glyph-name="shangyi" unicode="&#59597;" d="M461.226667-49.49333300000001v729.6L196.48 405.333333a55.893333 55.893333 0 1 0-80.64 77.653334L476.16 857.6a56.106667 56.106667 0 0 0 80.64 0l362.666667-376.96a56.106667 56.106667 0 0 0-2.133334-79.146667 56.106667 56.106667 0 0 0-79.146666 1.493334l-264.533334 275.2v-728.96A56.32 56.32 0 0 0 520.746667-106.66666699999996a56.96 56.96 0 0 0-59.52 57.173334z"  horiz-adv-x="1024" />
      
      <glyph glyph-name="xiayi" unicode="&#59342;" d="M461.226667 817.493333v-729.6L196.48 362.666667a55.893333 55.893333 0 1 1-80.64-77.653334L476.16-89.6a56.106667 56.106667 0 0 1 80.64 0l362.666667 376.96a56.106667 56.106667 0 0 1-2.133334 79.146667 56.106667 56.106667 0 0 1-79.146666-1.493334l-264.533334-275.2V818.773333A56.32 56.32 0 0 1 520.746667 874.666667a56.96 56.96 0 0 1-59.52-57.173334z"  horiz-adv-x="1024" />
      
      <glyph glyph-name="daohang-moxingsheji" unicode="&#59343;" d="M980.053333 721.066667L510.506667 879.786667a9.813333 9.813333 0 0 1-4.266667 0L42.666667 724.266667l-5.76-2.133334a31.146667 31.146667 0 0 1-13.226667-26.666666v-597.333334a7.253333 7.253333 0 0 1 4.48-6.826666l448-190.08 29.653333-12.586667h2.986667a5.973333 5.973333 0 0 1 2.773333 0l477.653334 202.666667a7.253333 7.253333 0 0 1 4.48 6.826666v597.333334a30.72 30.72 0 0 1-13.653334 25.6z m-58.026666-87.253334v-493.226666l-377.6-160.213334V473.6z m-768 52.48l354.56 118.613334 353.92-118.613334-353.92-149.333333z m318.08-213.333333v-492.586667L95.146667 140.586667V633.813333z"  horiz-adv-x="1024" />
      
      <glyph glyph-name="daohang-kuguanli" unicode="&#59344;" d="M974.506667 646.826667l-83.84 161.28a149.333333 149.333333 0 0 1-121.6 73.813333H253.653333A149.333333 149.333333 0 0 1 131.626667 808.533333l-83.626667-157.866666a328.746667 328.746667 0 0 1-32.853333-132.48V-12.8a97.28 97.28 0 0 1 97.28-97.28h797.226666a97.28 97.28 0 0 1 97.28 97.28V514.346667a331.946667 331.946667 0 0 1-32.426666 132.48zM253.653333 810.666667h515.413334a75.946667 75.946667 0 0 0 57.813333-34.986667l83.84-161.28a166.186667 166.186667 0 0 0 8.533333-20.266667H101.973333a162.346667 162.346667 0 0 0 9.6 23.68l83.84 157.866667A76.373333 76.373333 0 0 0 253.653333 810.666667z m681.386667-823.466667a25.386667 25.386667 0 0 0-25.386667-25.386667H112.426667a25.386667 25.386667 0 0 0-25.386667 25.386667V518.186667v3.2h847.573333v-7.04zM765.013333 361.386667l-150.826666-161.066667-58.453334 58.453333a36.693333 36.693333 0 0 1-50.773333 0 36.053333 36.053333 0 0 1 0-50.986666l84.053333-83.84a35.413333 35.413333 0 0 1 25.386667-10.453334 42.666667 42.666667 0 0 1 28.586667 12.16l174.506666 186.453334a36.053333 36.053333 0 1 1-52.48 49.28zM419.626667 318.293333H234.666667a36.053333 36.053333 0 1 1 0-72.106666h184.106666a36.053333 36.053333 0 0 1 0 72.106666zM326.613333 187.52H234.666667a36.053333 36.053333 0 0 1 0-72.106667h92.16a36.053333 36.053333 0 0 1 0 72.106667z"  horiz-adv-x="1024" />
      
      <glyph glyph-name="zuoduiqi" unicode="&#59601;" d="M546.346667-6.399999999999977a43.946667 43.946667 0 0 0 38.186666-21.333333 44.586667 44.586667 0 0 0 0-44.373334 43.946667 43.946667 0 0 0-38.186666-21.333333H65.493333a43.946667 43.946667 0 0 0-38.186666 21.333333 44.586667 44.586667 0 0 0 0 44.373334 43.946667 43.946667 0 0 0 38.186666 21.333333zM958.506667 277.33333300000004a43.946667 43.946667 0 0 0 38.186666-21.333333 44.586667 44.586667 0 0 0 0-44.373333 43.946667 43.946667 0 0 0-38.186666-21.333334H65.493333a43.946667 43.946667 0 0 0-38.186666 21.333334 44.586667 44.586667 0 0 0 0 44.373333 43.946667 43.946667 0 0 0 38.186666 21.333333zM546.346667 562.773333a44.16 44.16 0 0 0 0-88.32H65.493333a44.16 44.16 0 0 0 0 88.32zM958.506667 847.36a43.946667 43.946667 0 0 0 38.186666-21.333333 44.586667 44.586667 0 0 0 0-44.373334 43.946667 43.946667 0 0 0-38.186666-21.333333H65.493333a44.16 44.16 0 0 0 0 88.32z"  horiz-adv-x="1024" />
      
      <glyph glyph-name="shouqi" unicode="&#59346;" d="M992 106.666667a56.746667 56.746667 0 0 1-12.16 34.986666L543.786667 682.666667a56.106667 56.106667 0 0 1-42.666667 21.333333 55.253333 55.253333 0 0 1-42.666667-21.333333L23.04 143.573333a55.893333 55.893333 0 0 1 87.04-69.973333l390.186667 485.546667 392.32-487.893334A55.893333 55.893333 0 0 1 992 106.666667z"  horiz-adv-x="1024" />
      
      <glyph glyph-name="youduiqi" unicode="&#59347;" d="M477.653333-6.4a43.946667 43.946667 0 0 1-38.186666-21.333333 44.586667 44.586667 0 0 1 0-44.373334 43.946667 43.946667 0 0 1 38.186666-21.333333h480.853334a43.946667 43.946667 0 0 1 38.186666 21.333333 44.586667 44.586667 0 0 1 0 44.373334 43.946667 43.946667 0 0 1-38.186666 21.333333zM65.493333 277.333333a43.946667 43.946667 0 0 1-38.186666-21.333333 44.586667 44.586667 0 0 1 0-44.373333 43.946667 43.946667 0 0 1 38.186666-21.333334h893.013334a43.946667 43.946667 0 0 1 38.186666 21.333334 44.586667 44.586667 0 0 1 0 44.373333 43.946667 43.946667 0 0 1-38.186666 21.333333z m412.16 285.44a44.16 44.16 0 0 1 0-88.32h480.853334a44.16 44.16 0 0 1 0 88.32zM65.493333 847.36a43.946667 43.946667 0 0 1-38.186666-21.333333 44.586667 44.586667 0 0 1 0-44.373334 43.946667 43.946667 0 0 1 38.186666-21.333333h893.013334a44.16 44.16 0 1 1 0 88.32z"  horiz-adv-x="1024" />
      
      <glyph glyph-name="juzhongduiqi" unicode="&#59348;" d="M65.493333 277.333333a43.946667 43.946667 0 0 1-38.186666-21.333333 44.586667 44.586667 0 0 1 0-44.373333 43.946667 43.946667 0 0 1 38.186666-21.333334h893.013334a43.946667 43.946667 0 0 1 38.186666 21.333334 44.586667 44.586667 0 0 1 0 44.373333 43.946667 43.946667 0 0 1-38.186666 21.333333z m0 569.173334a43.946667 43.946667 0 0 1-38.186666-21.333334 44.586667 44.586667 0 0 1 0-44.373333 43.946667 43.946667 0 0 1 38.186666-21.333333h893.013334a44.16 44.16 0 1 1 0 88.32zM65.493333 0a43.946667 43.946667 0 0 1-38.186666-21.333333 44.586667 44.586667 0 0 1 0-44.373334 43.946667 43.946667 0 0 1 38.186666-21.333333h893.013334a43.946667 43.946667 0 0 1 38.186666 21.333333 44.586667 44.586667 0 0 1 0 44.373334 43.946667 43.946667 0 0 1-38.186666 21.333333z m0 569.173333a43.946667 43.946667 0 0 1-38.186666-21.333333 44.586667 44.586667 0 0 1 0-44.373333 43.946667 43.946667 0 0 1 38.186666-21.333334h893.013334a44.16 44.16 0 0 1 0 88.32z"  horiz-adv-x="1024" />
      
      <glyph glyph-name="hanggao" unicode="&#59349;" d="M303.573333 602.88a39.68 39.68 0 0 1 27.946667-11.52 39.253333 39.253333 0 0 1 27.733333 66.986667l-135.466666 135.466666a39.04 39.04 0 0 1-55.466667 0l-135.466667-135.466666a39.253333 39.253333 0 0 1 55.466667-55.466667l68.48 68.48v-577.92l-68.48 68.48A39.253333 39.253333 0 1 1 32.853333 106.666667l135.466667-135.466667a31.786667 31.786667 0 0 1 5.76-4.906667h1.706667a29.013333 29.013333 0 0 1 5.12-2.773333h2.346666a18.773333 18.773333 0 0 1 4.906667-1.493333 32 32 0 0 1 7.893333 0 31.36 31.36 0 0 1 7.68 0 23.253333 23.253333 0 0 1 5.12 1.493333h2.133334l5.333333 2.773333h1.493333a42.666667 42.666667 0 0 1 5.973334 4.906667L359.253333 106.666667a39.253333 39.253333 0 1 1-55.68 55.466666L234.666667 93.44V671.36zM466.773333 682.666667h496.64a39.253333 39.253333 0 1 1 0 78.506666H466.773333a39.253333 39.253333 0 0 1 0-78.506666zM466.773333 456.106667H782.933333a39.253333 39.253333 0 0 1 0 78.506666H466.773333a39.253333 39.253333 0 0 1 0-78.506666zM963.413333 308.906667H466.773333a39.253333 39.253333 0 0 1 0-78.506667h496.64a39.253333 39.253333 0 1 1 0 78.506667zM782.933333 83.2H466.773333a39.253333 39.253333 0 1 1 0-78.506667H782.933333a39.253333 39.253333 0 0 1 0 78.506667z"  horiz-adv-x="1024" />
      
      <glyph glyph-name="xiala2" unicode="&#59350;" d="M42.666667 583.466667l442.453333-537.173334a46.72 46.72 0 0 1 69.546667 0l445.013333 537.173334A46.72 46.72 0 0 1 964.906667 661.333333H77.226667A46.72 46.72 0 0 1 42.666667 583.466667z"  horiz-adv-x="1024" />
      
      <glyph glyph-name="xinzeng2" unicode="&#59351;" d="M512 874.666667a490.666667 490.666667 0 1 1 490.666667-490.666667A490.666667 490.666667 0 0 1 512 874.666667z m298.666667-789.333334a420.266667 420.266667 0 1 0 90.453333 134.186667A422.4 422.4 0 0 0 810.666667 85.333333z m-87.466667 332.16h-176.213333v176.426667a34.56 34.56 0 1 1-68.906667 0v-176h-176.853333a34.56 34.56 0 1 1 0-68.906667h176.853333v-174.933333a34.56 34.56 0 1 1 68.906667 0v174.933333h175.786666a34.56 34.56 0 1 1 0 68.906667z"  horiz-adv-x="1024" />
      
      <glyph glyph-name="jianqu21" unicode="&#59608;" d="M512 874.666667a490.666667 490.666667 0 1 1 490.666667-490.666667A490.666667 490.666667 0 0 1 512 874.666667z m298.666667-789.333334a420.266667 420.266667 0 1 0 90.453333 134.186667A422.4 422.4 0 0 0 810.666667 85.33333300000004z m-25.6 263.68H239.36a34.56 34.56 0 0 0 0 69.12h545.28a34.56 34.56 0 0 0 0-69.12z"  horiz-adv-x="1024" />
      
      <glyph glyph-name="xinjianbiao" unicode="&#59609;" d="M948.693333 878.933333H96.64A68.906667 68.906667 0 0 1 27.733333 810.666667v-853.333334a68.906667 68.906667 0 0 1 68.906667-68.266666h852.053333A68.906667 68.906667 0 0 1 1017.6-42.66666699999996V810.666667A68.906667 68.906667 0 0 1 948.693333 878.933333zM337.706667-50.77333299999998H96.64a8.746667 8.746667 0 0 0-8.746667 8.106666V199.03999999999996h249.813334z m0 309.973333H87.893333v249.6h249.813334z m0 309.76H87.893333V810.666667a8.746667 8.746667 0 0 0 8.746667 8.746666h241.066667z m309.76-619.733333h-249.6V199.03999999999996h249.6z m0 309.973333h-249.6v249.6h249.6z m0 309.76h-249.6V818.773333h249.6zM957.44-42.66666699999996a8.746667 8.746667 0 0 0-8.746667-8.746666h-241.066666V199.03999999999996h249.813333z m0 301.226667H707.626667V508.8h249.813333z m0 309.76H707.626667V818.773333h241.066666a8.746667 8.746667 0 0 0 8.746667-8.746666z"  horiz-adv-x="1024" />
      
      <glyph glyph-name="tianchongse" unicode="&#59610;" d="M1001.386667 98.98666700000001c-7.04 69.546667-130.56 260.906667-130.56 260.906666s-119.893333-185.173333-130.346667-260.906666c-17.92-129.28 64-144.426667 130.346667-144.426667s143.146667 14.506667 130.56 144.426667zM842.88 397.653333a64 64 0 0 1-18.346667 53.76L501.76 774.1866669999999a64 64 0 0 1-92.16 0L317.226667 682.666667 178.773333 820.48a32.426667 32.426667 0 0 1-46.08 0 32.853333 32.853333 0 0 1 0-46.08l138.453334-138.453333L40.533333 405.333333a64 64 0 0 1 0-92.16L362.666667-9.600000000000023a65.066667 65.066667 0 0 1 92.373333 0l369.493333 368.853333a64 64 0 0 1 18.346667 38.4zM132.693333 405.333333l184.533334 184.533334 115.413333-115.413334a32.64 32.64 0 0 1 46.08 46.293334L362.666667 635.9466669999999l92.373333 92.16L778.453333 405.333333z"  horiz-adv-x="1024" />
      
      <glyph glyph-name="yiwuhua" unicode="&#59355;" d="M21.333333 874.666667m122.666667 0l736 0q122.666667 0 122.666667-122.666667l0-736q0-122.666667-122.666667-122.666667l-736 0q-122.666667 0-122.666667 122.666667l0 736q0 122.666667 122.666667 122.666667ZM460.16 88.96v-11.52c-140.8 0-256 51.413333-256 114.986667V556.373333c0 72.96 114.133333 134.4 256 134.4s256-61.44 256-134.4v-64a250.026667 250.026667 0 0 1-68.266667 13.226667 64 64 0 0 1 32 49.92c0 53.12-98.133333 96-218.666666 96s-218.24-42.666667-218.24-96 97.706667-95.786667 218.24-95.786667c11.306667 0 21.333333 0 32.853333 1.066667a244.266667 244.266667 0 0 1-42.666667-39.253333c-88.32 1.92-165.12 27.52-207.786666 64v-64c0-36.053333 69.12-65.28 163.2-74.24a225.493333 225.493333 0 0 1-10.88-37.76A350.72 350.72 0 0 0 241.92 362.666667v-56.96c0-33.92 62.08-62.72 149.333333-72.746667a231.04 231.04 0 0 1 7.68-38.4 350.506667 350.506667 0 0 0-156.586666 53.12V192c0-39.68 85.333333-72.32 194.986666-76.373333a235.733333 235.733333 0 0 1 22.826667-26.666667zM634.666667 506.666667a245.333333 245.333333 0 1 1 245.333333-245.333334 245.333333 245.333333 0 0 1-245.333333 245.333334z m124.8-170.666667l-172.373334-172.8a21.333333 21.333333 0 0 0-4.053333-3.2 17.493333 17.493333 0 0 0-23.466667 6.613333l-52.266666 91.093334a17.28 17.28 0 0 0 30.08 17.28l40.96-71.68 156.8 157.44a17.28 17.28 0 0 0 24.533333-24.533334z"  horiz-adv-x="1024" />
      
      <glyph glyph-name="xiahuaxian" unicode="&#59356;" d="M838.4-106.666667H193.066667a40.32 40.32 0 1 0 0 80.64H838.4a40.32 40.32 0 0 0 0-80.64z m-322.56 120.96a362.666667 362.666667 0 0 0-362.666667 362.666667V834.346667a40.32 40.32 0 1 0 80.64 0v-457.173334a282.453333 282.453333 0 0 1 564.693334 0V834.346667a40.32 40.32 0 0 0 80.64 0v-457.173334a362.666667 362.666667 0 0 0-363.306667-362.88z"  horiz-adv-x="1024" />
      
      <glyph glyph-name="biankuangse" unicode="&#59357;" d="M874.666667-10.026667H192a48.853333 48.853333 0 1 1 0-97.706666h682.666667a48.853333 48.853333 0 1 1 0 97.706666zM229.76 254.72l-24.533333-57.6a32.64 32.64 0 0 1 42.666666-42.666667L487.893333 256a38.4 38.4 0 0 1 10.453334 6.826667l405.333333 405.333333a73.6 73.6 0 0 1 0 103.893333l-81.28 80.213334a73.6 73.6 0 0 1-103.893333 0l-11.733334-11.733334H207.36a97.28 97.28 0 0 1-97.28-97.28V352a97.493333 97.493333 0 0 1 97.28-97.28zM770.346667 800.213333l80.853333-80.64-64-64-80 81.493334z m-34.346667-195.84L452.053333 320l-139.946666-59.306667 59.306666 139.946667L655.36 685.226667zM174.08 352V743.253333a33.28 33.28 0 0 0 33.28 33.066667h435.413333L313.813333 448a28.586667 28.586667 0 0 1-6.826666-10.453333L256 318.72H207.36a33.28 33.28 0 0 0-33.28 33.28z"  horiz-adv-x="1024" />
      
      <glyph glyph-name="daoru" unicode="&#59614;" d="M486.186667 85.33333300000004a38.186667 38.186667 0 0 1 53.76 0l170.666666 170.666667a37.76 37.76 0 1 1-53.333333 53.546667l-106.666667-106.666667V836.693333a37.973333 37.973333 0 1 1-75.733333 0v-632.746666l-106.666667 106.666666A37.973333 37.973333 0 0 1 315.52 256z m478.506666 157.866667a37.76 37.76 0 0 1-37.76-37.76v-213.333333a22.613333 22.613333 0 0 0-22.613333-22.613334H119.68a22.4 22.4 0 0 0-22.613333 21.973334v213.333333a37.973333 37.973333 0 1 1-75.733334 0v-243.413333A68.053333 68.053333 0 0 1 89.386667-106.66666699999996h845.226666A68.053333 68.053333 0 0 1 1002.666667-38.61333300000001V205.44000000000005a37.973333 37.973333 0 0 1-37.973334 37.76z"  horiz-adv-x="1024" />
      
      <glyph glyph-name="chexiao1" unicode="&#59359;" d="M687.36 620.16H141.226667L256 735.573333a34.986667 34.986667 0 1 1-48.853333 49.706667l-172.16-172.373333a22.826667 22.826667 0 0 1-3.413334-2.986667A34.986667 34.986667 0 0 1 21.333333 584.96a35.413333 35.413333 0 0 1 10.24-24.96l3.413334-2.986667L207.146667 384A34.986667 34.986667 0 1 1 256 434.346667l-114.773333 115.626666h546.133333a245.333333 245.333333 0 0 0 0-490.666666H266.88a34.986667 34.986667 0 1 1 0-69.973334h420.48a315.52 315.52 0 0 1 0 630.826667z"  horiz-adv-x="1024" />
      
      <glyph glyph-name="zitiyanse" unicode="&#59360;" d="M507.733333 733.653333l-154.88-320h309.76z m35.2 109.013334L896 115.84a39.68 39.68 0 0 0-71.04-35.2l-123.946667 254.72H314.24L192 81.28a39.893333 39.893333 0 0 0-52.48-18.773333 39.466667 39.466667 0 0 0-18.56 52.266666l352.213333 725.333334a39.68 39.68 0 0 0 53.12 18.346666 40.106667 40.106667 0 0 0 17.92-17.28zM183.253333-49.706667h676.693334a33.92 33.92 0 0 0 33.92-33.706666 33.92 33.92 0 0 0-33.92-33.92H183.253333A33.92 33.92 0 0 0 149.333333-83.413333a33.92 33.92 0 0 0 33.92 33.706666z"  horiz-adv-x="1024" />
      
      <glyph glyph-name="xianxing" unicode="&#59361;" d="M64 851.2h880.64a45.013333 45.013333 0 0 0 45.013333-45.013333 44.8 44.8 0 0 0-45.013333-45.013334H64A44.8 44.8 0 0 0 19.626667 806.186667 45.013333 45.013333 0 0 0 64 851.2zM654.506667 19.626667m45.013333 0l48.64 0q45.013333 0 45.013333-45.013334l0 0q0-45.013333-45.013333-45.013333l-48.64 0q-45.013333 0-45.013333 45.013333l0 0q0 45.013333 45.013333 45.013334ZM623.36 435.413333h325.546667a44.8 44.8 0 0 0 45.013333-45.013333 44.8 44.8 0 0 0-45.013333-45.013333H623.36a44.8 44.8 0 0 0-45.013333 45.013333 44.8 44.8 0 0 0 45.013333 45.013333zM75.946667 435.413333h325.546666a44.8 44.8 0 0 0 45.013334-45.013333 44.8 44.8 0 0 0-45.013334-45.013333H75.946667a44.8 44.8 0 0 0-45.013334 45.013333 44.8 44.8 0 0 0 45.013334 45.013333zM30.933333 19.626667m45.013334 0l48.64 0q45.013333 0 45.013333-45.013334l0 0q0-45.013333-45.013333-45.013333l-48.64 0q-45.013333 0-45.013334 45.013333l0 0q0 45.013333 45.013334 45.013334ZM238.72 19.626667m45.013333 0l48.64 0q45.013333 0 45.013334-45.013334l0 0q0-45.013333-45.013334-45.013333l-48.64 0q-45.013333 0-45.013333 45.013333l0 0q0 45.013333 45.013333 45.013334ZM446.506667 19.626667m45.013333 0l48.64 0q45.013333 0 45.013333-45.013334l0 0q0-45.013333-45.013333-45.013333l-48.64 0q-45.013333 0-45.013333 45.013333l0 0q0 45.013333 45.013333 45.013334ZM862.293333 19.626667m45.013334 0l48.64 0q45.013333 0 45.013333-45.013334l0 0q0-45.013333-45.013333-45.013333l-48.64 0q-45.013333 0-45.013334 45.013333l0 0q0 45.013333 45.013334 45.013334Z"  horiz-adv-x="1024" />
      
      <glyph glyph-name="fuzhi1" unicode="&#59362;" d="M881.493333 646.826667L676.48 853.333333a64 64 0 0 1-14.08 11.093334l-4.053333 2.133333a16 16 0 0 1-2.773334 1.28 67.413333 67.413333 0 0 1-27.733333 6.826667H358.613333a69.76 69.76 0 0 1-69.973333-68.906667v-53.76H234.666667A69.546667 69.546667 0 0 1 165.973333 682.666667v-720.64A69.12 69.12 0 0 1 234.666667-106.666667h475.093333a68.266667 68.266667 0 0 1 68.48 68.693334v53.973333H832A68.053333 68.053333 0 0 1 900.906667 85.333333V597.333333a68.906667 68.906667 0 0 1-19.413334 49.493334zM663.253333 768l131.2-131.84h-131.2z m46.08-806.613333H234.666667V682.666667h53.76v-597.333334a69.76 69.76 0 0 1 69.973333-68.906666h350.933333zM832 85.333333H357.546667V805.76h236.8v-168.746667a69.76 69.76 0 0 1 69.973333-69.12H832z m-175.36 386.773334a34.346667 34.346667 0 0 1-34.56 34.56H445.866667a34.56 34.56 0 1 1 0-68.906667h176.213333a34.346667 34.346667 0 0 1 34.56 34.346667z m122.666667-122.666667A34.346667 34.346667 0 0 1 744.746667 384h-298.666667a34.56 34.56 0 1 1 0-68.906667h298.666667a34.346667 34.346667 0 0 1 34.56 34.346667z m-61.44-122.666667A34.346667 34.346667 0 0 1 682.666667 261.333333H445.866667a34.56 34.56 0 1 1 0-68.906666H682.666667a34.346667 34.346667 0 0 1 35.2 34.346666z"  horiz-adv-x="1024" />
      
      <glyph glyph-name="xiancuxi" unicode="&#59364;" d="M21.333333 847.146667m34.986667 0l911.36 0q34.986667 0 34.986667-34.986667l0-140.373333q0-34.986667-34.986667-34.986667l-911.36 0q-34.986667 0-34.986667 34.986667l0 140.373333q0 34.986667 34.986667 34.986667ZM21.333333 426.666667m34.986667 0l911.36 0q34.986667 0 34.986667-34.986667l0-70.186667q0-34.986667-34.986667-34.986666l-911.36 0q-34.986667 0-34.986667 34.986666l0 70.186667q0 34.986667 34.986667 34.986667ZM56.32 6.186667h911.36A35.2 35.2 0 0 0 1002.666667-29.013333 35.2 35.2 0 0 0 967.68-64H56.32A35.2 35.2 0 0 0 21.333333-29.013333a35.2 35.2 0 0 0 34.986667 35.2z"  horiz-adv-x="1024" />
      
      <glyph glyph-name="zhongzuo1" unicode="&#59365;" d="M336.64 620.16h546.133333L768 735.573333a34.986667 34.986667 0 1 0 49.493333 49.706667l172.16-172.373333a22.826667 22.826667 0 0 0 3.413334-2.986667 34.986667 34.986667 0 0 0 9.6-24.96 35.413333 35.413333 0 0 0-10.24-24.96l-3.413334-2.986667L816.853333 384A34.986667 34.986667 0 1 0 768 434.346667l115.413333 115.626666H336.64a245.333333 245.333333 0 0 1 0-490.666666h420.48a34.986667 34.986667 0 1 0 0-69.973334H336.64a315.52 315.52 0 0 0 0 630.826667z"  horiz-adv-x="1024" />
      
      <glyph glyph-name="baocun1" unicode="&#59366;" d="M682.666667 853.333333H130.773333A88.106667 88.106667 0 0 1 42.666667 765.226667v-762.453334A88.106667 88.106667 0 0 1 130.773333-85.333333h762.453334A88.106667 88.106667 0 0 1 981.333333 2.773333V553.6zM288.426667 765.226667H554.666667v-251.946667A44.16 44.16 0 0 0 510.08 469.333333h-177.493333a44.16 44.16 0 0 0-44.16 44.16z m604.8-762.453334H130.773333V765.226667h69.546667v-251.946667a132.48 132.48 0 0 1 132.266667-132.266667h177.493333a132.266667 132.266667 0 0 1 132.053333 132.266667V765.226667h2.986667l247.893333-248.106667v-514.346667z m-433.28 554.666667a44.16 44.16 0 0 1 43.946666 44.16v52.48a44.16 44.16 0 0 1-88.106666 0v-52.693333a44.16 44.16 0 0 1 44.16-44.16z"  horiz-adv-x="1024" />
      
      <glyph glyph-name="zitijiacu" unicode="&#59367;" d="M192-106.666667V874.666667h413.866667c45.653333 0 99.626667-28.586667 140.8-73.386667a284.586667 284.586667 0 0 0 75.52-195.626667 286.08 286.08 0 0 0-74.666667-194.773333 279.466667 279.466667 0 0 0 74.026667-51.626667 271.786667 271.786667 0 0 0 0-393.813333 238.08 238.08 0 0 0-151.466667-72.106667z m94.293333 94.506667h382.293334a149.333333 149.333333 0 0 1 87.68 45.44 177.066667 177.066667 0 0 1 0 258.133333 152.96 152.96 0 0 1-87.04 45.44h-384z m0 443.306667h320a69.76 69.76 0 0 1 29.013334 9.6 161.92 161.92 0 0 1 42.666666 33.493333 192 192 0 0 1 50.346667 131.413333 190.08 190.08 0 0 1-50.346667 131.413334 163.84 163.84 0 0 1-42.666666 33.706666 71.893333 71.893333 0 0 1-28.586667 9.386667h-320z"  horiz-adv-x="1024" />
      
      <glyph glyph-name="chakan3" unicode="&#59368;" d="M1002.666667 376.746667a392.96 392.96 0 0 1-22.613334 67.413333 501.12 501.12 0 0 1-67.413333 118.186667 448 448 0 0 1-149.333333 121.6A552.96 552.96 0 0 1 512 738.346667 552.746667 552.746667 0 0 1 261.333333 682.666667a448 448 0 0 1-149.333333-121.386667 508.16 508.16 0 0 1-67.2-118.186667A392.746667 392.746667 0 0 1 21.333333 376.533333a405.333333 405.333333 0 0 1 22.613334-67.626666 518.613333 518.613333 0 0 1 67.2-117.973334 451.84 451.84 0 0 1 150.4-121.6A554.666667 554.666667 0 0 1 512 14.293333a554.666667 554.666667 0 0 1 250.453333 54.613334 448 448 0 0 1 149.333334 121.6 504.533333 504.533333 0 0 1 67.413333 117.973333 392.746667 392.746667 0 0 1 23.466667 67.626667z m-80.64 0a476.16 476.16 0 0 0-69.973334-136.746667 372.266667 372.266667 0 0 0-124.16-100.693333A479.146667 479.146667 0 0 0 512 92.16a478.506667 478.506667 0 0 0-215.68 46.293333A369.92 369.92 0 0 0 170.666667 239.36a476.16 476.16 0 0 0-70.186667 137.173333A479.146667 479.146667 0 0 0 170.666667 513.92a371.413333 371.413333 0 0 0 124.373333 100.693333A480 480 0 0 0 512 661.333333a475.946667 475.946667 0 0 0 215.466667-46.72 369.28 369.28 0 0 0 124.16-100.906666 475.306667 475.306667 0 0 0 70.4-137.173334zM512 565.76a188.373333 188.373333 0 1 1 188.373333-188.373333A188.586667 188.586667 0 0 1 512 565.76z m110.933333-188.373333a111.146667 111.146667 0 1 0-32.426666 78.293333 109.866667 109.866667 0 0 0 32.213333-78.293333z"  horiz-adv-x="1024" />
      
      <glyph glyph-name="luoji" unicode="&#59369;" d="M813.44 649.173333h151.04A37.76 37.76 0 0 1 1002.666667 686.933333V837.76A37.76 37.76 0 0 1 964.48 874.666667h-151.04a37.76 37.76 0 0 1-37.76-37.76V800h-188.586667a37.546667 37.546667 0 0 1-37.76-37.546667v-339.84h-151.04v113.28a37.76 37.76 0 0 1-37.76 37.76H58.666667A37.76 37.76 0 0 1 21.333333 535.893333V234.666667a37.76 37.76 0 0 1 37.333334-38.4H360.533333a37.76 37.76 0 0 1 37.76 38.4v113.066666h151.04v-340.266666a37.76 37.76 0 0 1 37.76-37.76h188.586667v-37.76A37.973333 37.973333 0 0 1 813.44-106.666667h151.04A37.76 37.76 0 0 1 1002.666667-68.053333v151.04a37.76 37.76 0 0 1-37.76 37.76h-151.466667a37.76 37.76 0 0 1-37.76-37.76v-37.76h-150.826667V347.093333h150.826667v-37.76a37.76 37.76 0 0 1 37.76-37.546666h151.04A37.546667 37.546667 0 0 1 1002.666667 309.333333v151.04a37.76 37.76 0 0 1-37.76 37.76h-151.466667a37.76 37.76 0 0 1-37.76-37.76v-37.76h-150.826667V725.333333h150.826667v-38.4a37.76 37.76 0 0 1 37.76-37.76zM851.2 800h75.52V725.333333H851.2zM322.773333 271.786667H96.426667V498.133333h226.346666zM851.2 45.226667h75.52v-75.52H851.2z m0 377.386666h75.52v-75.52H851.2z"  horiz-adv-x="1024" />
      
      <glyph glyph-name="xinjian" unicode="&#59370;" d="M512 874.666667a490.666667 490.666667 0 1 1 490.666667-490.666667A490.666667 490.666667 0 0 1 512 874.666667z m245.333333-490.666667a34.346667 34.346667 0 0 0-34.56-34.56h-175.786666v-174.933333a34.56 34.56 0 1 0-68.906667 0v174.933333h-176.853333a34.56 34.56 0 1 0 0 68.906667h176.853333v175.573333a34.56 34.56 0 1 0 68.906667 0v-176h175.786666A34.346667 34.346667 0 0 0 757.333333 384z"  horiz-adv-x="1024" />
      
      <glyph glyph-name="xieti" unicode="&#59371;" d="M781.44 874.666667a30.506667 30.506667 0 0 0 30.72-30.72v-36.693334a30.506667 30.506667 0 0 0-30.72-30.72h-135.68l-168.106667-785.066666h132.053334A30.506667 30.506667 0 0 0 640-39.253333v-36.693334A30.506667 30.506667 0 0 0 609.706667-106.666667H241.706667a30.933333 30.933333 0 0 0-21.333334 8.96 31.786667 31.786667 0 0 0-8.96 21.333334v37.12a31.786667 31.786667 0 0 0 8.96 21.333333 30.933333 30.933333 0 0 0 21.333334 8.96h135.68L545.493333 776.533333h-132.053333a30.72 30.72 0 0 0-30.72 30.72V843.946667A30.72 30.72 0 0 0 413.44 874.666667z"  horiz-adv-x="1024" />
      
      <glyph glyph-name="jia3" unicode="&#59372;" d="M957.013333 426.666667H553.173333V821.12a45.653333 45.653333 0 0 1-91.306666 0V426.666667H66.986667a45.653333 45.653333 0 1 1 0-91.093334h394.88v-394.453333a45.653333 45.653333 0 0 1 91.306666 0V336.213333h403.84a45.653333 45.653333 0 1 1 0 91.093334z"  horiz-adv-x="1024" />
      
      <glyph glyph-name="fanhui2" unicode="&#59373;" d="M882.986667-106.666667H162.346667a130.986667 130.986667 0 0 0-130.346667 131.413334V743.253333A130.986667 130.986667 0 0 0 162.346667 874.666667h720.64a130.56 130.56 0 0 0 130.346666-130.346667v-720.64A130.56 130.56 0 0 0 882.986667-106.666667zM162.346667 809.173333a65.493333 65.493333 0 0 1-64-65.92v-718.506666a64 64 0 0 1 64-65.92h720.64a64 64 0 0 1 64 64V744.32a64 64 0 0 1-64 64zM394.026667 389.973333l243.413333 219.093334a24.533333 24.533333 0 0 1-32.853333 36.266666L345.813333 412.373333a23.68 23.68 0 0 1-7.04-5.333333 25.173333 25.173333 0 0 1-6.4-17.066667 24.106667 24.106667 0 0 1 6.4-16.853333 24.533333 24.533333 0 0 1 7.04-5.546667l258.773334-232.96A24.533333 24.533333 0 0 1 637.44 170.666667z"  horiz-adv-x="1024" />
      
      <glyph glyph-name="shezhi1" unicode="&#59374;" d="M581.973333 306.133333A110.293333 110.293333 0 1 0 614.186667 384a109.866667 109.866667 0 0 0-32.213334-77.866667z m-77.866666 265.386667A187.52 187.52 0 1 1 691.626667 384a187.733333 187.733333 0 0 1-187.52 187.52zM917.333333 384a417.92 417.92 0 0 0-2.773333-45.226667l-38.186667-12.586666-33.493333-11.52-10.88-33.493334a320 320 0 0 0-23.466667-56.533333l-16.426666-31.36 33.706666-67.413333a398.08 398.08 0 0 0-29.866666-33.92 362.666667 362.666667 0 0 0-33.706667-29.653334l-67.2 33.706667-31.146667-16.213333a374.4 374.4 0 0 0-57.386666-23.893334l-33.706667-10.453333-11.093333-33.28-12.586667-38.186667a369.066667 369.066667 0 0 0-45.013333-2.773333 421.12 421.12 0 0 0-45.226667 2.773333l-12.586667 38.186667-11.093333 33.706667-33.92 10.24a326.826667 326.826667 0 0 0-56.746667 23.466666l-31.36 16.426667-31.786666-16-35.84-17.706667a389.973333 389.973333 0 0 0-33.706667 29.866667 382.08 382.08 0 0 0-29.866667 33.706667l33.706667 66.133333-16.426667 31.36a334.08 334.08 0 0 0-23.466666 56.96l-10.453334 33.92-71.68 24.533333A369.066667 369.066667 0 0 0 90.88 384a417.92 417.92 0 0 0 2.773333 45.226667l71.466667 23.68 10.453333 33.92a366.293333 366.293333 0 0 0 23.466667 57.173333l16.426667 31.146667-15.786667 31.573333-17.706667 35.84a407.253333 407.253333 0 0 0 64 64l67.413334-33.706667 31.36 16.64a365.866667 365.866667 0 0 0 56.746666 23.04l33.706667 10.453334 11.093333 33.493333 12.8 37.973333a379.52 379.52 0 0 0 45.013334 2.773334 365.653333 365.653333 0 0 0 44.8-2.773334l23.893333-71.253333 33.706667-10.453333a370.133333 370.133333 0 0 0 57.173333-23.466667l31.36-16.426667 67.2 33.706667a420.693333 420.693333 0 0 0 64-64L792.746667 576l16-31.146667A364.586667 364.586667 0 0 0 832 486.826667l10.453333-33.706667 33.493334-11.093333 37.973333-12.8A298.666667 298.666667 0 0 0 917.333333 384z m70.4 77.013333l-4.053333 25.813334-78.72 27.306666a437.973333 437.973333 0 0 1-25.813333 61.866667L917.333333 650.453333l-15.146666 21.333334a502.613333 502.613333 0 0 1-110.08 109.866666l-21.333334 15.146667-75.306666-37.12a413.226667 413.226667 0 0 1-62.08 25.6L607.146667 864l-25.6 4.053333A489.173333 489.173333 0 0 1 503.893333 874.666667a483.2 483.2 0 0 1-77.226666-6.826667l-25.813334-4.053333-26.24-78.933334a456.746667 456.746667 0 0 1-62.08-25.6l-74.88 37.333334-21.333333-15.36A488.106667 488.106667 0 0 1 106.666667 671.36l-15.36-21.333333L128 576a401.92 401.92 0 0 1-25.6-61.866667l-78.933333-26.24-3.413334-26.026666A500.053333 500.053333 0 0 1 13.44 384a496 496 0 0 1 6.613333-77.866667l4.053334-25.813333 78.933333-26.24A405.333333 405.333333 0 0 1 128 192l-36.266667-74.24 15.146667-21.333333a482.986667 482.986667 0 0 1 50.346667-59.733334 495.573333 495.573333 0 0 1 59.52-50.346666l21.333333-15.146667 74.24 37.12a392.106667 392.106667 0 0 1 62.08-25.6l26.24-79.146667 25.813333-4.053333a495.573333 495.573333 0 0 1 77.653334-6.613333 496 496 0 0 1 77.866666 6.613333l25.813334 4.053333 26.24 79.146667a420.266667 420.266667 0 0 1 61.866666 25.6l74.453334-37.333333 21.333333 15.36a451.84 451.84 0 0 1 59.52 50.346666 487.893333 487.893333 0 0 1 50.133333 59.52l15.36 21.333334L878.933333 192a414.293333 414.293333 0 0 1 25.813334 62.08l78.933333 26.453333 4.053333 25.813334a495.573333 495.573333 0 0 1 6.613334 77.653333 430.293333 430.293333 0 0 1-6.613334 77.866667z"  horiz-adv-x="1024" />
      
      <glyph glyph-name="guanbi1" unicode="&#59631;" d="M590.72 380.373333L986.453333 776.106667a55.68 55.68 0 0 1-39.466666 94.933333 55.04 55.04 0 0 1-39.253334-16.213333L512 459.093333 116.266667 854.826667a55.04 55.04 0 0 1-39.253334 16.213333 55.68 55.68 0 0 1-39.466666-94.933333l395.733333-395.733334L37.546667-15.360000000000014a55.68 55.68 0 1 1 78.72-78.506667L512 301.653333 907.733333-93.866667a55.68 55.68 0 0 1 78.72 78.506667z"  horiz-adv-x="1024" />
      
      <glyph glyph-name="daohang-shouye" unicode="&#59376;" d="M808.533333 345.173333v-352.64h-166.613333V239.36a42.666667 42.666667 0 0 1-42.666667 42.666667h-173.866666a42.666667 42.666667 0 0 1-42.666667-42.666667v-246.826667H215.466667V345.173333H111.573333L512 745.386667l24.96-24.96 375.466667-375.253334zM572.586667-7.466667h-121.173334V213.333333h121.173334z m409.813333 392.96L564.053333 803.626667 536.106667 832a34.346667 34.346667 0 0 1-48.213334 0L42.666667 385.493333a68.693333 68.693333 0 0 1-21.333334-49.706666 69.973333 69.973333 0 0 1 70.186667-68.48h46.08V-85.333333h748.8V267.306667h46.933333a69.12 69.12 0 0 1 49.066667 20.266666 68.266667 68.266667 0 0 1 21.333333 49.066667 68.906667 68.906667 0 0 1-21.333333 48.853333z"  horiz-adv-x="1024" />
      
      <glyph glyph-name="xiangzuoshousuo" unicode="&#59377;" d="M552.96 720.213333h408.746667A40.96 40.96 0 0 0 1002.666667 679.253333a40.96 40.96 0 0 0-40.96-40.96H552.96A40.96 40.96 0 0 0 512 679.253333a40.96 40.96 0 0 0 40.96 40.96zM62.293333 418.133333h899.413334A40.96 40.96 0 0 0 1002.666667 377.386667a40.96 40.96 0 0 0-40.96-40.96H62.293333A40.96 40.96 0 0 0 21.333333 377.386667a40.96 40.96 0 0 0 40.96 40.746666zM326.4 116.266667h635.306667A40.96 40.96 0 0 0 1002.666667 75.306667a40.746667 40.746667 0 0 0-40.96-40.746667H326.4a40.746667 40.746667 0 0 0-40.96 40.746667 40.96 40.96 0 0 0 40.96 40.96z"  horiz-adv-x="1024" />
      
      <glyph glyph-name="jian2" unicode="&#59634;" d="M21.333333 430.933333m42.666667 0l896 0q42.666667 0 42.666667-42.666666l0-4.266667q0-42.666667-42.666667-42.666667l-896 0q-42.666667 0-42.666667 42.666667l0 4.266667q0 42.666667 42.666667 42.666666Z"  horiz-adv-x="1024" />
      
      <glyph glyph-name="geshishua" unicode="&#59635;" d="M906.666667 765.653333h-64V847.36A27.306667 27.306667 0 0 1 815.786667 874.666667H143.36a27.306667 27.306667 0 0 1-27.306667-27.306667v-308.906667A27.306667 27.306667 0 0 1 143.36 512h672.426667a27.306667 27.306667 0 0 1 27.306666 27.306667v153.6h36.266667v-227.2H480.64a45.226667 45.226667 0 0 1-45.226667-45.44v-154.453334h-50.133333a8.96 8.96 0 0 1-8.96-8.96V-2.1333329999999933a7.253333 7.253333 0 0 1 0-2.133334v-7.04a95.36 95.36 0 0 1 190.72 0v7.04a6.613333 6.613333 0 0 1 0 2.133334V256a8.96 8.96 0 0 1-8.96 8.96h-50.133333v128H906.666667a45.44 45.44 0 0 1 45.44 45.44V720.213333a45.44 45.44 0 0 1-45.44 45.44z m-136.32-181.76H188.8V801.92h581.546667z m-276.053334-595.2a22.826667 22.826667 0 0 0-45.44 0v204.586667h45.44z"  horiz-adv-x="1024" />
      
      <glyph glyph-name="moxing" unicode="&#59636;" d="M768 482.133333V731.9466669999999a18.986667 18.986667 0 0 1-9.386667 16.213333L519.253333 886.4a18.133333 18.133333 0 0 1-18.56 0L261.12 748.16a18.986667 18.986667 0 0 1-9.386667-16.213333V482.133333L35.413333 357.33333300000004a18.773333 18.773333 0 0 1-9.386666-16.213333V64a18.773333 18.773333 0 0 1 9.386666-16.213333l239.573334-138.24a18.133333 18.133333 0 0 1 18.56 0l216.32 125.44L725.333333-89.81333299999994a18.56 18.56 0 0 1 18.773334 0l239.573333 138.24a18.56 18.56 0 0 1 9.173333 16.213333V341.33333300000004a18.56 18.56 0 0 1-9.173333 16.213334z m-29.866667-241.706666L576 333.226667 735.573333 426.666667 896 333.013333z m-451.413333 0l-162.56 92.8L284.373333 426.666667l160.64-92.8z m30.08 426.666666L477.44 576v-186.666667l-160.64 92.8z m225.706667-277.546666v183.893333l161.493333 93.866667v-184.96z m128 334.293333L512 631.253333l-162.346667 92.8 160.213334 92.586667zM91.306667 277.33333300000004l160.426666-91.733333v-186.88l-160.426666 92.8z m225.493333-278.613333v183.893333L477.44 277.33333300000004v-184.96zM542.506667 277.33333300000004L704 185.60000000000002v-186.88l-160.426667 92.8zM768-1.2799999999999727v183.893333L928.64 277.33333300000004v-184.96z"  horiz-adv-x="1024" />
      
      <glyph glyph-name="Ownerguanli" unicode="&#59381;" d="M943.786667 128a34.773333 34.773333 0 0 1-33.066667 31.36h-1.706667A34.133333 34.133333 0 0 0 874.666667 192a36.266667 36.266667 0 0 0 2.986666 12.586667 40.32 40.32 0 0 1-15.36 49.066666l-50.773333 27.946667a42.666667 42.666667 0 0 1-45.866667-9.386667 58.026667 58.026667 0 0 0-27.733333-16.853333 58.666667 58.666667 0 0 0-28.16 17.28 42.666667 42.666667 0 0 1-46.08 9.386667l-52.693333-28.8h-1.493334a39.68 39.68 0 0 1-13.653333-47.786667 35.413333 35.413333 0 0 0 3.2-12.8 34.133333 34.133333 0 0 0-34.133333-34.133333h-1.706667A34.773333 34.773333 0 0 1 530.346667 128a273.28 273.28 0 0 1-4.266667-41.173333 248.746667 248.746667 0 0 1 4.053333-39.253334v-1.92a34.773333 34.773333 0 0 1 33.066667-31.573333h1.706667a34.133333 34.133333 0 0 0 34.133333-34.133333 42.666667 42.666667 0 0 0-2.986667-12.586667 40.533333 40.533333 0 0 1 15.146667-49.066667L661.333333-110.293333a42.666667 42.666667 0 0 1 46.08 9.813333 59.306667 59.306667 0 0 0 28.586667 18.133333 58.026667 58.026667 0 0 0 28.586667-18.346666 42.666667 42.666667 0 0 1 30.72-13.226667 40.746667 40.746667 0 0 1 17.706666 4.053333l49.706667 27.733334h1.706667a39.466667 39.466667 0 0 1 13.44 47.786666A42.666667 42.666667 0 0 0 874.666667-21.333333a34.133333 34.133333 0 0 0 34.133333 34.133333h1.92a34.986667 34.986667 0 0 1 32.853333 32.213333 240.426667 240.426667 0 0 1 4.266667 40.32 270.72 270.72 0 0 1-4.053333 42.666667z m-122.24-168.746667l-24.106667-13.226666-11.093333 8.96a85.333333 85.333333 0 0 1-50.346667 18.986666 83.84 83.84 0 0 1-50.133333-18.986666c-4.053333-2.773333-7.466667-5.76-10.88-8.533334l-22.826667 12.586667a82.133333 82.133333 0 0 1 2.986667 21.333333 90.88 90.88 0 0 1-71.893334 88.106667 159.573333 159.573333 0 0 0-1.493333 18.56 167.466667 167.466667 0 0 0 1.493333 18.773333A88.106667 88.106667 0 0 1 652.373333 213.333333l25.6 13.866667c2.773333-2.346667 6.4-5.333333 10.88-8.533333a76.373333 76.373333 0 0 1 98.133334 0c4.266667 2.986667 7.893333 5.973333 10.88 8.533333l23.893333-13.44a79.786667 79.786667 0 0 1-2.773333-21.333333 90.88 90.88 0 0 1 71.893333-88.106667 170.666667 170.666667 0 0 0 1.493333-18.773333 181.333333 181.333333 0 0 0-1.493333-18.56 88.96 88.96 0 0 1-69.333333-108.586667zM736.213333 170.666667a83.84 83.84 0 1 1 83.84-85.333334 84.053333 84.053333 0 0 1-83.84 85.333334z m0-55.893334A28.16 28.16 0 1 0 708.053333 85.333333a27.946667 27.946667 0 0 0 28.16 29.013334zM780.8 593.066667A286.506667 286.506667 0 0 1 498.346667 878.933333h-3.2a285.226667 285.226667 0 0 1-145.493334-530.986666A412.586667 412.586667 0 0 1 83.626667-31.573333v-5.76a172.373333 172.373333 0 0 1 1.706666-18.346667c0-3.84 0-7.466667 1.28-11.52l1.066667-2.773333a33.92 33.92 0 0 1 66.56 0h1.706667v3.413333a118.186667 118.186667 0 0 1-1.493334 12.16 145.92 145.92 0 0 0-1.706666 18.986667 341.333333 341.333333 0 0 0 100.266666 242.346666 346.026667 346.026667 0 0 0 242.56 100.266667l31.36 3.2A284.586667 284.586667 0 0 1 780.8 593.066667zM494.933333 809.6A216.746667 216.746667 0 1 0 277.333333 592.853333 216.96 216.96 0 0 0 494.933333 809.6z"  horiz-adv-x="1024" />
      
      <glyph glyph-name="daohang-moxingguanli" unicode="&#59382;" d="M406.613333 161.493333V505.173333l260.693334 110.506667v-137.6a277.333333 277.333333 0 0 0 66.773333 16v177.706667a30.293333 30.293333 0 0 1-8.533333 21.333333l1.706666 2.986667L376.533333 812.8h-4.266666l-341.333334-114.773333a29.866667 29.866667 0 0 1-18.133333-26.453334v-443.946666l344.533333-146.133334 16-6.186666L497.493333 128a277.333333 277.333333 0 0 0-13.013333 66.986667z m-66.56 0L79.36 272.213333v343.466667l260.693333-110.506667zM373.333333 563.2L135.893333 664.106667 373.333333 743.68l237.44-79.573333zM764.373333 313.386667a98.56 98.56 0 1 1 98.56-98.56 98.56 98.56 0 0 1-98.56 98.56z m40.96-98.56a41.386667 41.386667 0 0 0-11.946666-29.013334 42.666667 42.666667 0 0 0-57.813334 0 41.386667 41.386667 0 0 0-11.946666 29.013334 40.533333 40.533333 0 0 0 11.946666 28.8 40.533333 40.533333 0 0 0 57.813334 0 40.533333 40.533333 0 0 0 11.946666-28.8zM1002.666667 253.013333l-2.986667 18.346667-39.68 12.8a221.44 221.44 0 0 1-8.533333 21.333333l18.56 35.84-10.026667 14.506667a243.413333 243.413333 0 0 1-53.76 53.973333l-15.146667 10.88-37.76-17.92c-6.826667 3.2-13.653333 5.973333-21.333333 8.533334l-12.586667 37.973333-18.56 2.773333a217.386667 217.386667 0 0 1-76.16 0l-18.346666-2.986666-12.8-38.186667a170.666667 170.666667 0 0 1-21.333334-8.32l-35.84 17.92-15.146666-10.88a240 240 0 0 1-53.973334-53.973333l-10.88-15.146667 19.626667-35.84c-3.2-6.826667-5.973333-13.653333-8.533333-21.333333l-37.973334-12.586667-2.986666-18.56a229.546667 229.546667 0 0 1 0-76.373333l2.986666-18.346667 37.973334-12.8c2.56-7.04 5.333333-13.866667 8.533333-21.333333l-17.92-35.626667 11.093333-15.146667a237.013333 237.013333 0 0 1 24.533334-29.226666 253.226667 253.226667 0 0 1 29.226666-24.746667l15.146667-10.88 35.84 17.92a208.426667 208.426667 0 0 1 21.333333-8.533333l12.8-38.186667 18.346667-2.773333a215.253333 215.253333 0 0 1 76.373333 0l18.346667 2.773333 12.8 38.186667c6.826667 2.56 13.653333 5.333333 21.333333 8.533333l35.84-17.92 15.146667 10.88a216.746667 216.746667 0 0 1 28.16 26.24 253.226667 253.226667 0 0 1 25.6 29.226667l10.88 15.146666-18.133333 35.84a176.853333 176.853333 0 0 1 8.746666 21.333334l37.973334 12.586666 2.986666 18.56a248.533333 248.533333 0 0 1 3.2 37.973334 206.293333 206.293333 0 0 1-2.986666 37.546666z m-98.986667-157.653333a100.053333 100.053333 0 0 0-8.96-10.026667c-2.986667-2.986667-6.186667-5.76-9.6-8.746666L853.333333 91.733333l-19.413333-10.026666a145.493333 145.493333 0 0 0-25.173333-10.453334L789.333333 64l-10.666666-32a134.826667 134.826667 0 0 0-26.24 0l-11.733334 32-21.333333 6.4a150.613333 150.613333 0 0 0-24.746667 10.24l-19.626666 10.24-30.293334-15.146667-9.6 9.6a126.293333 126.293333 0 0 0-8.746666 9.6l14.933333 30.293334-10.24 19.413333A153.813333 153.813333 0 0 0 620.8 170.666667l-6.4 21.333333-32.213333 10.666667v13.226666 13.013334l32 10.88 6.613333 21.333333a139.733333 139.733333 0 0 0 10.24 24.96l10.24 19.626667-15.146667 30.08a173.226667 173.226667 0 0 0 18.773334 18.773333l30.08-15.146667 19.413333 10.24a151.893333 151.893333 0 0 0 25.173333 10.24l21.333334 6.613334 10.88 32.213333a179.626667 179.626667 0 0 0 26.24 0l10.666666-32 21.333334-6.613333a159.786667 159.786667 0 0 0 25.173333-10.24l19.413333-10.24 30.08 15.146666a173.226667 173.226667 0 0 0 18.773334-18.773333l-14.933334-30.08 10.026667-19.413333a157.44 157.44 0 0 0 10.453333-25.173334l6.613334-21.333333 32.213333-10.666667v-26.026666l-32.213333-10.88-6.613334-21.333334a146.56 146.56 0 0 0-10.026666-24.746666l-10.453334-19.413334z"  horiz-adv-x="1024" />
      
      <glyph glyph-name="xiala1" unicode="&#59383;" d="M1002.666667 586.666667c0-12.8-4.266667-25.6-12.8-34.133334L554.666667 10.666667c-10.666667-12.8-25.6-21.333333-42.666667-21.333334s-32 8.533333-42.666667 21.333334L34.133333 550.4c-21.333333 23.466667-17.066667 57.6 4.266667 78.933333s57.6 17.066667 78.933333-4.266666c2.133333-2.133333 2.133333-2.133333 2.133334-4.266667L512 134.4l390.4 488.533333c19.2 23.466667 53.333333 27.733333 78.933333 8.533334 12.8-10.666667 21.333333-27.733333 21.333334-44.8z"  horiz-adv-x="1024" />
      
      <glyph glyph-name="xiangyouzhankai" unicode="&#59384;" d="M471.466667 721.066667H61.866667c-21.333333 0-40.533333-19.2-40.533334-42.666667s19.2-40.533333 40.533334-40.533333h409.6c23.466667 0 40.533333 19.2 40.533333 40.533333 0 23.466667-19.2 42.666667-40.533333 42.666667zM962.133333 418.133333H61.866667c-23.466667 0-40.533333-19.2-40.533334-40.533333 0-23.466667 19.2-40.533333 40.533334-40.533333h900.266666c23.466667 0 40.533333 19.2 40.533334 40.533333 0 21.333333-19.2 40.533333-40.533334 40.533333zM697.6 117.333333H61.866667c-23.466667 0-40.533333-19.2-40.533334-40.533333 0-23.466667 19.2-40.533333 40.533334-40.533333h635.733333c23.466667 0 40.533333 17.066667 40.533333 40.533333 0 21.333333-17.066667 40.533333-40.533333 40.533333z"  horiz-adv-x="1024" />
      
      <glyph glyph-name="fanhui3" unicode="&#59385;" d="M311.466667 384l458.666666-409.6c19.2-17.066667 19.2-44.8 4.266667-64-17.066667-17.066667-44.8-19.2-64-4.266667L221.866667 341.333333c-4.266667 2.133333-10.666667 6.4-12.8 10.666667-17.066667 19.2-17.066667 44.8 0 64 4.266667 4.266667 8.533333 8.533333 12.8 10.666667L708.266667 864c19.2 17.066667 46.933333 14.933333 64-4.266667 17.066667-19.2 14.933333-46.933333-4.266667-64L311.466667 384z"  horiz-adv-x="1024" />
      
      <glyph glyph-name="bianji6" unicode="&#59386;" d="M963.2-27.733333H60.8a39.466667 39.466667 0 0 1 0-78.933334h902.4a39.466667 39.466667 0 0 1 0 78.933334z m-687.786667 129.28L533.333333 210.56a39.04 39.04 0 0 1 11.093334 7.466667l434.986666 434.986666a78.933333 78.933333 0 0 1 0 111.786667l-86.613333 86.826667a79.146667 79.146667 0 0 1-111.573333 0l-434.986667-435.2a34.986667 34.986667 0 0 1-7.466667-11.093334l-109.44-257.92a35.2 35.2 0 0 1 7.466667-38.4 34.773333 34.773333 0 0 1 38.613333-7.466666zM836.906667 795.733333l86.826666-86.826666L855.68 640l-86.613333 87.68zM407.893333 366.72L713.173333 672l86.826667-86.826667-305.28-305.28-150.613333-64z"  horiz-adv-x="1024" />
      
      <glyph glyph-name="sousuo2" unicode="&#59387;" d="M994.133333-42.666667L768 181.333333c147.2 179.2 123.733333 443.733333-55.466667 593.066667S268.8 896 119.466667 718.933333-2.133333 273.066667 174.933333 125.866667c155.733333-128 379.733333-128 535.466667 0l226.133333-226.133334c6.4-6.4 17.066667-10.666667 27.733334-10.666666 21.333333 0 40.533333 17.066667 40.533333 38.4 2.133333 10.666667-2.133333 21.333333-10.666667 29.866666zM684.8 209.066667c-29.866667-32-66.133333-57.6-106.666667-74.666667-128-53.333333-277.333333-25.6-375.466666 74.666667-134.4 134.4-134.4 349.866667 0 482.133333 134.4 132.266667 349.866667 134.4 482.133333 0 134.4-132.266667 134.4-349.866667 0-482.133333z"  horiz-adv-x="1024" />
      
      <glyph glyph-name="wuhua" unicode="&#59388;" d="M1004.8 204.8c-2.133333 21.333333-19.2 38.4-40.533333 40.533333h-2.133334c-27.733333 0-49.066667 21.333333-49.066666 49.066667 0 6.4 2.133333 12.8 4.266666 19.2 8.533333 21.333333 0 44.8-19.2 57.6l-68.266666 36.266667c-6.4 2.133333-12.8 4.266667-19.2 4.266666-14.933333 0-27.733333-6.4-38.4-14.933333-10.666667-12.8-25.6-19.2-40.533334-23.466667-14.933333 4.266667-29.866667 12.8-40.533333 25.6-10.666667 10.666667-23.466667 14.933333-38.4 14.933334-6.4 0-12.8-2.133333-19.2-4.266667l-68.266667-38.4c-17.066667-12.8-25.6-36.266667-17.066666-57.6 2.133333-6.4 4.266667-12.8 4.266666-19.2 0-27.733333-21.333333-51.2-49.066666-51.2H497.066667c-21.333333-2.133333-38.4-17.066667-40.533334-38.4-2.133333-19.2-4.266667-36.266667-6.4-55.466667 0-17.066667 2.133333-36.266667 6.4-53.333333 2.133333-21.333333 19.2-38.4 40.533334-40.533333h2.133333c27.733333 0 49.066667-21.333333 49.066667-49.066667 0-6.4-2.133333-12.8-4.266667-19.2-8.533333-21.333333-2.133333-46.933333 19.2-61.866667l66.133333-36.266666c6.4-2.133333 12.8-4.266667 19.2-4.266667h2.133334c14.933333 0 27.733333 6.4 38.4 17.066667 10.666667 12.8 25.6 21.333333 42.666666 25.6 17.066667-4.266667 32-12.8 42.666667-25.6 8.533333-8.533333 19.2-14.933333 32-17.066667 6.4 0 14.933333 2.133333 21.333333 4.266667l70.4 38.4c19.2 12.8 25.6 36.266667 17.066667 57.6-2.133333 6.4-4.266667 12.8-4.266667 19.2 0 27.733333 21.333333 49.066667 49.066667 49.066666h2.133333c21.333333 2.133333 38.4 17.066667 38.4 38.4 4.266667 19.2 8.533333 38.4 10.666667 57.6 0 21.333333-4.266667 38.4-6.4 55.466667zM849.066667-21.333333L810.666667-42.666667c-4.266667 4.266667-10.666667 8.533333-14.933334 12.8-19.2 14.933333-42.666667 23.466667-66.133333 25.6-23.466667-2.133333-46.933333-10.666667-64-25.6-6.4-4.266667-10.666667-8.533333-17.066667-12.8l-36.266666 21.333334c2.133333 8.533333 4.266667 19.2 4.266666 29.866666 0 57.6-40.533333 104.533333-96 115.2-2.133333 8.533333-2.133333 19.2-2.133333 27.733334 0 10.666667 0 19.2 2.133333 29.866666 55.466667 8.533333 96 55.466667 98.133334 113.066667 0 10.666667-2.133333 19.2-4.266667 29.866667l38.4 21.333333c4.266667-4.266667 10.666667-8.533333 17.066667-12.8 19.2-14.933333 40.533333-23.466667 64-23.466667 23.466667 2.133333 44.8 8.533333 61.866666 23.466667 6.4 4.266667 10.666667 8.533333 17.066667 12.8l38.4-21.333333c-2.133333-10.666667-4.266667-19.2-4.266667-29.866667 0-55.466667 40.533333-102.4 93.866667-113.066667 2.133333-8.533333 2.133333-19.2 2.133333-27.733333 0-10.666667 0-21.333333-2.133333-29.866667-55.466667-10.666667-96-57.6-96-115.2 0-10.666667 2.133333-21.333333 4.266667-29.866666zM87.466667 76.8v76.8c85.333333-51.2 183.466667-78.933333 283.733333-81.066667h8.533333v74.666667h-6.4c-160 8.533333-283.733333 59.733333-283.733333 113.066667v76.8c85.333333-51.2 183.466667-78.933333 283.733333-81.066667h8.533334v74.666667h-6.4C209.066667 341.333333 87.466667 390.4 87.466667 445.866667V533.333333c76.8-59.733333 204.8-96 341.333333-96 121.6-6.4 241.066667 27.733333 343.466667 96v-76.8h72.533333v200.533334C844.8 778.666667 659.2 878.933333 428.8 878.933333S12.8 782.933333 12.8 659.2v-582.4c0-104.533333 185.6-192 416-192h8.533333v76.8h-8.533333c-185.6 0-341.333333 53.333333-341.333333 115.2z m341.333333 729.6c189.866667 0 341.333333-66.133333 341.333333-145.066667s-153.6-145.066667-341.333333-145.066666-341.333333 66.133333-341.333333 145.066666 153.6 145.066667 341.333333 145.066667zM727.466667 260.266667c-59.733333 0-108.8-49.066667-108.8-108.8s49.066667-108.8 108.8-108.8 108.8 49.066667 108.8 108.8-46.933333 108.8-108.8 108.8z m0-151.466667c-23.466667 0-40.533333 19.2-40.533334 42.666667s19.2 40.533333 42.666667 40.533333c21.333333 0 40.533333-19.2 40.533333-40.533333 0-23.466667-19.2-40.533333-42.666666-42.666667z"  horiz-adv-x="1024" />
      
      <glyph glyph-name="shanchu3" unicode="&#59389;" d="M721.066667 520.533333c-21.333333 0-38.4-17.066667-38.4-38.4v-364.8c2.133333-21.333333 21.333333-38.4 42.666666-36.266666 19.2 2.133333 34.133333 17.066667 36.266667 36.266666V482.133333c0 21.333333-17.066667 38.4-40.533333 38.4z m-422.4 0c-21.333333 0-38.4-17.066667-38.4-38.4v-364.8c2.133333-21.333333 21.333333-38.4 42.666666-36.266666 19.2 2.133333 34.133333 17.066667 36.266667 36.266666V482.133333c-2.133333 21.333333-19.2 38.4-40.533333 38.4z m213.333333 0c-21.333333 0-38.4-17.066667-38.4-38.4v-364.8c2.133333-21.333333 21.333333-38.4 42.666667-36.266666 19.2 2.133333 34.133333 17.066667 36.266666 36.266666V482.133333c-2.133333 21.333333-19.2 38.4-40.533333 38.4z m352-548.266666H172.8V652.8h691.2v-680.533333zM339.2 793.6H682.666667v-64H339.2v64z m652.8-74.666667c-8.533333 6.4-17.066667 10.666667-27.733333 10.666667h-202.666667v64c0 42.666667-34.133333 76.8-76.8 76.8H339.2c-42.666667 0-76.8-34.133333-76.8-76.8v-64H59.733333c-21.333333 0-38.4-17.066667-38.4-40.533333 0-21.333333 17.066667-38.4 38.4-38.4h34.133334v-678.4c0-42.666667 34.133333-76.8 76.8-76.8h691.2c42.666667 0 76.8 34.133333 76.8 76.8V652.8h23.466666c21.333333 0 40.533333 17.066667 40.533334 38.4 0 10.666667-4.266667 19.2-10.666667 27.733333zM142.933333-96c-4.266667 2.133333-6.4 6.4-10.666666 10.666667l10.666666-10.666667z m10.666667-6.4c-4.266667 2.133333-6.4 6.4-10.666667 10.666667l10.666667-10.666667z"  horiz-adv-x="1024" />
      
      <glyph glyph-name="cunweishitu" unicode="&#59413;" d="M554.666667 29.866667h232.533333c46.933333 0 85.333333 38.4 85.333333 85.333333V674.133333c0 46.933333-38.4 85.333333-85.333333 85.333334H554.666667c-46.933333 0-85.333333-38.4-85.333334-85.333334v-558.933333c0-46.933333 38.4-85.333333 85.333334-85.333333z m-8.533334 85.333333V674.133333c0 4.266667 4.266667 8.533333 8.533334 8.533334h232.533333c4.266667 0 8.533333-4.266667 8.533333-8.533334v-558.933333c0-4.266667-4.266667-8.533333-8.533333-8.533333H554.666667c-4.266667-2.133333-10.666667 2.133333-8.533334 8.533333-2.133333 0-2.133333 0 0 0zM932.266667 891.733333H81.066667C42.666667 891.733333 10.666667 859.733333 10.666667 819.2v-851.2c0-38.4 32-70.4 70.4-70.4h851.2c38.4 0 70.4 32 70.4 70.4V819.2C1002.666667 859.733333 970.666667 889.6 932.266667 891.733333z m-6.4-76.8v-840.533333H87.466667V814.933333h838.4zM211.2 29.866667h132.266667c38.4 0 70.4 32 70.4 70.4v196.266666c0 38.4-32 70.4-70.4 70.4H211.2c-38.4 0-70.4-32-70.4-70.4v-196.266666c0-38.4 32-70.4 70.4-70.4z m6.4 262.4h121.6V106.666667h-121.6v185.6zM213.333333 422.4h130.133334c38.4 0 70.4 32 70.4 70.4V689.066667c0 38.4-32 70.4-70.4 70.4H213.333333c-38.4 0-70.4-29.866667-72.533333-70.4V490.666667c0-36.266667 32-68.266667 72.533333-68.266667z m4.266667 76.8V682.666667h119.466667v-185.6l-119.466667 2.133333z"  horiz-adv-x="1024" />
      
      <glyph glyph-name="shuzhi" unicode="&#59414;" d="M904.533333 279.466667h-206.933333l19.2 196.266666h185.6c23.466667-4.266667 44.8 12.8 49.066667 34.133334v14.933333c4.266667 23.466667-12.8 44.8-34.133334 49.066667h-192l25.6 245.333333v4.266667c0 23.466667-19.2 44.8-44.8 44.8H704c-25.6 0-46.933333-19.2-49.066667-44.8l-25.6-249.6h-196.266666l23.466666 245.333333v4.266667c0 23.466667-19.2 44.8-44.8 44.8h-4.266666c-25.6 0-46.933333-19.2-49.066667-44.8l-25.6-249.6h-213.333333c-23.466667 4.266667-44.8-12.8-49.066667-34.133334v-14.933333c-4.266667-23.466667 12.8-44.8 34.133333-49.066667H326.4l-19.2-196.266666H119.466667c-23.466667 4.266667-44.8-12.8-49.066667-34.133334v-14.933333c-4.266667-23.466667 12.8-44.8 34.133333-49.066667h192L270.933333-64v-4.266667c0-23.466667 19.2-44.8 44.8-44.8h4.266667c25.6 0 46.933333 19.2 49.066667 44.8l25.6 249.6h196.266666L565.333333-64v-4.266667c0-23.466667 19.2-44.8 44.8-44.8h4.266667c25.6 0 46.933333 19.2 49.066667 44.8l25.6 249.6h215.466666c23.466667-4.266667 44.8 12.8 49.066667 34.133334v14.933333c4.266667 23.466667-12.8 44.8-36.266667 49.066667h-12.8z m-501.333333 0l19.2 196.266666H618.666667l-19.2-196.266666h-196.266667z"  horiz-adv-x="1024" />
      
      <glyph glyph-name="shengxu" unicode="&#59415;" d="M936.533333 488.533333L817.066667 866.133333c-2.133333 4.266667-6.4 8.533333-12.8 8.533334h-102.4c-6.4 0-10.666667-4.266667-10.666667-8.533334l-121.6-377.6v-4.266666c0-6.4 6.4-12.8 12.8-12.8h74.666667c6.4 0 10.666667 4.266667 12.8 8.533333l23.466666 83.2h119.466667l23.466667-81.066667c2.133333-6.4 6.4-8.533333 12.8-8.533333h85.333333c2.133333 0 6.4 2.133333 6.4 6.4-2.133333 2.133333-2.133333 4.266667-4.266667 8.533333z m-234.666666 145.066667L746.666667 789.333333h8.533333l42.666667-155.733333h-96z m192-659.2h-172.8l177.066666 251.733333c2.133333 2.133333 2.133333 4.266667 2.133334 6.4v49.066667c0 6.4-6.4 12.8-12.8 12.8H614.4c-6.4 0-12.8-6.4-12.8-12.8v-57.6c0-6.4 6.4-12.8 12.8-12.8h164.266667l-177.066667-251.733333c-2.133333-2.133333-2.133333-4.266667-2.133333-6.4v-49.066667c0-6.4 6.4-12.8 12.8-12.8h281.6c6.4 0 12.8 6.4 12.8 12.8v57.6c0 8.533333-6.4 12.8-12.8 12.8z m-512 680.533333l-149.333334 189.866667c-4.266667 4.266667-10.666667 6.4-14.933333 2.133333 0 0-2.133333 0-2.133333-2.133333l-149.333334-189.866667c-2.133333-4.266667-2.133333-10.666667 2.133334-14.933333 2.133333-2.133333 4.266667-2.133333 6.4-2.133333h100.266666v-706.133334c0-6.4 4.266667-10.666667 10.666667-10.666666h74.666667c6.4 0 10.666667 4.266667 10.666666 10.666666V637.866667h100.266667c6.4 0 10.666667 4.266667 10.666667 10.666666 2.133333 2.133333 0 4.266667 0 6.4z"  horiz-adv-x="1024" />
      
      <glyph glyph-name="kelong" unicode="&#59416;" d="M859.733333 646.4L654.933333 853.333333c-4.266667 4.266667-8.533333 8.533333-14.933333 10.666667l-4.266667 2.133333-2.133333 2.133334c-8.533333 4.266667-17.066667 6.4-27.733333 6.4H337.066667c-38.4 0-70.4-29.866667-70.4-68.266667v-53.333333H213.333333c-38.4 0-68.266667-32-68.266666-68.266667v-721.066667c0-38.4 29.866667-68.266667 68.266666-68.266666h475.733334c38.4 0 68.266667 29.866667 68.266666 68.266666v53.333334H810.666667c38.4 0 68.266667 29.866667 68.266666 68.266666V597.333333c2.133333 19.2-6.4 36.266667-19.2 49.066667zM642.133333 768l130.133334-132.266667h-130.133334V768z m44.8-806.4H213.333333V682.666667h53.333334v-597.333334c0-38.4 32-68.266667 70.4-68.266666h352v-55.466667zM810.666667 85.333333H337.066667V806.4h236.8v-168.533333c0-38.4 32-68.266667 70.4-68.266667H810.666667V85.333333z m-174.933334 386.133334c0 19.2-14.933333 34.133333-34.133333 34.133333h-177.066667c-19.2 2.133333-36.266667-12.8-36.266666-32-2.133333-19.2 12.8-36.266667 32-36.266667H603.733333c17.066667 0 32 14.933333 32 34.133334z m121.6-121.6c0 19.2-14.933333 34.133333-34.133333 34.133333h-298.666667c-19.2 2.133333-36.266667-12.8-36.266666-32-2.133333-19.2 12.8-36.266667 32-36.266667H725.333333c17.066667 0 32 14.933333 32 34.133334z m-59.733333-123.733334c0 19.2-14.933333 34.133333-34.133333 34.133334H424.533333c-19.2 2.133333-36.266667-12.8-36.266666-32-2.133333-19.2 12.8-36.266667 32-36.266667H661.333333c19.2 0 34.133333 14.933333 36.266667 34.133333z"  horiz-adv-x="1024" />
      
      <glyph glyph-name="shoucang-zhengchang" unicode="&#59417;" d="M746.666667-102.4c-17.066667 0-32 4.266667-46.933334 12.8l-196.266666 108.8-196.266667-108.8c-40.533333-21.333333-89.6-12.8-119.466667 21.333333-17.066667 21.333333-25.6 49.066667-21.333333 78.933334l38.4 236.8-164.266667 168.533333c-36.266667 38.4-36.266667 98.133333 0 136.533333 14.933333 14.933333 34.133333 23.466667 53.333334 27.733334l221.866666 34.133333 100.266667 211.2c8.533333 17.066667 21.333333 32 38.4 42.666667 29.866667 19.2 68.266667 19.2 100.266667 0 17.066667-10.666667 29.866667-25.6 38.4-42.666667l100.266666-211.2 221.866667-34.133333c53.333333-8.533333 89.6-57.6 81.066667-108.8-2.133333-19.2-12.8-38.4-27.733334-53.333334l-164.266666-168.533333 38.4-236.8c8.533333-53.333333-27.733333-102.4-81.066667-110.933333-4.266667-2.133333-10.666667-2.133333-14.933333-4.266667zM503.466667 117.333333l236.8-132.266666c4.266667-2.133333 10.666667-2.133333 14.933333 2.133333 2.133333 2.133333 2.133333 6.4 2.133333 8.533333L712.533333 277.333333l194.133334 198.4c2.133333 2.133333 4.266667 6.4 2.133333 10.666667s-4.266667 6.4-8.533333 8.533333l-266.666667 40.533334-119.466667 251.733333c-2.133333 6.4-8.533333 8.533333-14.933333 6.4h-2.133333c-2.133333-2.133333-4.266667-2.133333-4.266667-4.266667l-117.333333-253.866666-266.666667-40.533334c-4.266667 0-8.533333-4.266667-8.533333-8.533333-2.133333-4.266667 0-8.533333 2.133333-10.666667l194.133333-198.4-44.8-279.466666c0-4.266667 0-6.4 2.133334-8.533334 4.266667-4.266667 8.533333-6.4 14.933333-2.133333l234.666667 130.133333z"  horiz-adv-x="1024" />
      
      <glyph glyph-name="shoucang-gaoliang" unicode="&#59419;" d="M503.466667 836.266667c-10.666667 0-19.2-2.133333-27.733334-8.533334-8.533333-6.4-17.066667-12.8-21.333333-23.466666l-108.8-232.533334-21.333333-2.133333-221.866667-34.133333c-29.866667-4.266667-49.066667-32-44.8-59.733334 2.133333-10.666667 6.4-21.333333 14.933333-29.866666l179.2-183.466667-2.133333-21.333333-42.666667-236.8c-4.266667-29.866667 14.933333-57.6 44.8-61.866667h8.533334c8.533333 0 17.066667 2.133333 25.6 6.4l217.6 119.466667 19.2-10.666667 196.266666-108.8c25.6-14.933333 59.733333-4.266667 72.533334 21.333333 6.4 10.666667 8.533333 21.333333 6.4 34.133334l-42.666667 258.133333 14.933333 14.933333 164.266667 168.533334c21.333333 21.333333 21.333333 55.466667 0 76.8-8.533333 8.533333-19.2 12.8-29.866667 14.933333L661.333333 573.866667l-8.533333 19.2-100.266667 211.2c-4.266667 10.666667-12.8 17.066667-21.333333 23.466666-8.533333 6.4-17.066667 8.533333-27.733333 8.533334zM746.666667-102.4c-17.066667 0-32 4.266667-46.933334 12.8l-196.266666 108.8-196.266667-108.8c-40.533333-21.333333-89.6-12.8-119.466667 21.333333-17.066667 21.333333-25.6 49.066667-21.333333 78.933334l38.4 236.8-164.266667 168.533333c-36.266667 38.4-36.266667 98.133333 0 136.533333 14.933333 14.933333 34.133333 23.466667 53.333334 27.733334l221.866666 34.133333 100.266667 211.2c8.533333 17.066667 21.333333 32 38.4 42.666667 29.866667 19.2 68.266667 19.2 100.266667 0 17.066667-10.666667 29.866667-25.6 38.4-42.666667l100.266666-211.2 221.866667-34.133333c53.333333-8.533333 89.6-57.6 81.066667-108.8-2.133333-19.2-12.8-38.4-27.733334-53.333334l-164.266666-168.533333 38.4-236.8c8.533333-53.333333-27.733333-102.4-81.066667-110.933333-4.266667-2.133333-10.666667-2.133333-14.933333-4.266667zM503.466667 117.333333l236.8-132.266666c4.266667-2.133333 10.666667-2.133333 14.933333 2.133333 2.133333 2.133333 2.133333 6.4 2.133333 8.533333L712.533333 277.333333l194.133334 198.4c2.133333 2.133333 4.266667 6.4 2.133333 10.666667s-4.266667 6.4-8.533333 8.533333l-266.666667 40.533334-119.466667 251.733333c-2.133333 6.4-8.533333 8.533333-14.933333 6.4h-2.133333c-2.133333-2.133333-4.266667-2.133333-4.266667-4.266667l-117.333333-253.866666-266.666667-40.533334c-4.266667 0-8.533333-4.266667-8.533333-8.533333-2.133333-4.266667 0-8.533333 2.133333-10.666667l194.133333-198.4-44.8-279.466666c0-4.266667 0-6.4 2.133334-8.533334 4.266667-4.266667 8.533333-6.4 14.933333-2.133333l234.666667 130.133333z"  horiz-adv-x="1024" />
      
      <glyph glyph-name="diliweizhi" unicode="&#59420;" d="M512 874.666667C294.4 874.666667 115.2 686.933333 115.2 456.533333c0-59.733333 32-236.8 330.666667-556.8 17.066667-17.066667 40.533333-27.733333 64-27.733333s46.933333 10.666667 64 27.733333c298.666667 320 332.8 497.066667 332.8 556.8C908.8 686.933333 729.6 874.666667 512 874.666667z m0-908.8C228.266667 268.8 206.933333 418.133333 206.933333 456.533333c0 179.2 136.533333 326.4 305.066667 326.4h4.266667c166.4-2.133333 298.666667-149.333333 298.666666-326.4 2.133333-38.4-21.333333-187.733333-302.933333-490.666666zM512 629.333333c-102.4 0-185.6-83.2-185.6-185.6 0-102.4 83.2-185.6 185.6-185.6s185.6 83.2 185.6 185.6c0 102.4-83.2 185.6-185.6 185.6z m0-279.466666c-51.2 0-93.866667 42.666667-93.866667 93.866666 0 51.2 42.666667 93.866667 93.866667 93.866667 51.2 0 93.866667-42.666667 93.866667-93.866667 0-53.333333-42.666667-93.866667-93.866667-93.866666z"  horiz-adv-x="1024" />
      
      <glyph glyph-name="yulan" unicode="&#59421;" d="M1002.666667 377.6c-6.4 23.466667-12.8 44.8-23.466667 68.266667-17.066667 42.666667-40.533333 81.066667-68.266667 117.333333-40.533333 51.2-91.733333 91.733333-149.333333 121.6-76.8 36.266667-162.133333 55.466667-249.6 53.333333-87.466667 2.133333-172.8-17.066667-251.733333-55.466666-57.6-29.866667-108.8-70.4-149.333334-121.6-27.733333-36.266667-51.2-76.8-68.266666-117.333334-10.666667-21.333333-17.066667-42.666667-23.466667-66.133333 6.4-23.466667 12.8-44.8 23.466667-68.266667 17.066667-42.666667 40.533333-81.066667 68.266666-117.333333 40.533333-51.2 91.733333-91.733333 151.466667-121.6C341.333333 32 426.666667 14.933333 512 14.933333c87.466667-2.133333 172.8 17.066667 249.6 55.466667 57.6 29.866667 108.8 70.4 149.333333 121.6 27.733333 36.266667 51.2 76.8 68.266667 117.333333 10.666667 21.333333 17.066667 42.666667 23.466667 68.266667z m-81.066667 0c-14.933333-49.066667-38.4-96-70.4-136.533333-34.133333-42.666667-76.8-76.8-123.733333-100.266667C661.333333 106.666667 586.666667 91.733333 512 91.733333c-74.666667-2.133333-149.333333 14.933333-215.466667 46.933334-49.066667 23.466667-91.733333 57.6-125.866666 100.266666-29.866667 42.666667-53.333333 87.466667-70.4 136.533334 17.066667 51.2 40.533333 96 70.4 138.666666 34.133333 42.666667 76.8 76.8 123.733333 100.266667C362.666667 646.4 437.333333 663.466667 512 661.333333c74.666667 2.133333 149.333333-14.933333 215.466667-46.933333 49.066667-23.466667 89.6-57.6 123.733333-100.266667 32-42.666667 55.466667-87.466667 70.4-136.533333zM512 565.333333c-104.533333 0-187.733333-85.333333-187.733333-187.733333s85.333333-187.733333 187.733333-187.733333 187.733333 85.333333 187.733333 187.733333c0 104.533333-83.2 187.733333-187.733333 187.733333z m110.933333-187.733333c0-61.866667-49.066667-110.933333-110.933333-110.933333-61.866667 0-110.933333 49.066667-110.933333 110.933333 0 61.866667 49.066667 110.933333 110.933333 110.933333 29.866667 0 57.6-10.666667 78.933333-32s32-49.066667 32-78.933333z"  horiz-adv-x="1024" />
      
      <glyph glyph-name="paixu2" unicode="&#59422;" d="M307.2 610.133333H206.933333v-699.733333c0-6.4-4.266667-10.666667-10.666666-10.666667H123.733333c-6.4 0-10.666667 4.266667-10.666666 10.666667V610.133333H10.666667c-6.4 0-10.666667 4.266667-10.666667 10.666667 0 2.133333 0 4.266667 2.133333 6.4L149.333333 814.933333c4.266667 4.266667 10.666667 4.266667 14.933334 2.133334 0 0 2.133333 0 2.133333-2.133334l147.2-187.733333c4.266667-4.266667 2.133333-10.666667-2.133333-14.933333 0-2.133333-2.133333-2.133333-4.266667-2.133334zM522.666667 748.8h-2.133334c-8.533333 0-17.066667-4.266667-23.466666-10.666667-6.4-6.4-8.533333-17.066667-8.533334-25.6 0-8.533333 4.266667-19.2 10.666667-25.6 6.4-6.4 14.933333-10.666667 23.466667-8.533333h426.666666c19.2 2.133333 32 17.066667 32 36.266667 0 8.533333-4.266667 19.2-10.666666 25.6-6.4 6.4-14.933333 10.666667-23.466667 8.533333H522.666667zM522.666667 270.933333h-2.133334c-8.533333 0-17.066667-4.266667-23.466666-10.666666-6.4-6.4-8.533333-14.933333-8.533334-23.466667 0-8.533333 4.266667-17.066667 10.666667-25.6 6.4-6.4 14.933333-10.666667 23.466667-8.533333h251.733333c19.2 2.133333 32 17.066667 32 36.266666 0 8.533333-4.266667 17.066667-10.666667 23.466667-6.4 6.4-14.933333 10.666667-23.466666 8.533333H522.666667zM522.666667 40.533333h-2.133334c-8.533333 0-17.066667-4.266667-23.466666-10.666666-6.4-6.4-8.533333-17.066667-8.533334-25.6 0-8.533333 4.266667-19.2 10.666667-25.6 6.4-6.4 14.933333-10.666667 25.6-8.533334H704c19.2 2.133333 34.133333 19.2 32 38.4 0 8.533333-4.266667 17.066667-10.666667 23.466667-6.4 6.4-14.933333 8.533333-25.6 8.533333h-177.066666zM522.666667 518.4h-2.133334c-19.2-2.133333-34.133333-17.066667-32-36.266667 0-8.533333 4.266667-17.066667 10.666667-23.466666 6.4-6.4 14.933333-10.666667 23.466667-8.533334h339.2c8.533333 0 17.066667 4.266667 23.466666 10.666667 12.8 14.933333 12.8 36.266667-2.133333 49.066667-6.4 6.4-14.933333 10.666667-23.466667 8.533333H522.666667z"  horiz-adv-x="1024" />
      
      <glyph glyph-name="shijian11" unicode="&#59423;" d="M866.133333 731.733333c-196.266667 196.266667-514.133333 196.266667-708.266666 0-196.266667-196.266667-196.266667-514.133333 0-708.266666 93.866667-93.866667 221.866667-147.2 354.133333-147.2 277.333333 0 501.333333 224 501.333333 501.333333 0 132.266667-53.333333 260.266667-147.2 354.133333z m55.466667-354.133333c0-226.133333-183.466667-409.6-407.466667-409.6H512c-226.133333 0-409.6 183.466667-409.6 409.6S285.866667 787.2 512 787.2s409.6-183.466667 409.6-409.6zM755.2 377.6H526.933333V631.466667c0 23.466667-19.2 42.666667-42.666666 42.666666s-42.666667-19.2-42.666667-42.666666v-273.066667c0-17.066667 6.4-34.133333 17.066667-46.933333 12.8-12.8 29.866667-19.2 49.066666-19.2h249.6c23.466667 0 42.666667 19.2 42.666667 42.666666s-21.333333 42.666667-44.8 42.666667z"  horiz-adv-x="1024" />
      
      <glyph glyph-name="wenben11" unicode="&#59424;" d="M942.933333 878.933333H81.066667c-27.733333 0-49.066667-21.333333-49.066667-49.066666s21.333333-49.066667 49.066667-49.066667h381.866666v-855.466667c0-27.733333 21.333333-49.066667 49.066667-49.066666 27.733333 0 49.066667 21.333333 49.066667 49.066666V780.8h379.733333c27.733333 0 49.066667 21.333333 49.066667 49.066667S968.533333 878.933333 942.933333 878.933333z"  horiz-adv-x="1024" />
      
      <glyph glyph-name="gengxinshili" unicode="&#59425;" d="M352-42.666667H177.066667c-42.666667 2.133333-76.8 38.4-76.8 81.066667V729.6c-2.133333 42.666667 32 78.933333 76.8 81.066667h405.333333v-166.4c-2.133333-25.6 10.666667-51.2 34.133333-66.133334 14.933333-8.533333 34.133333-12.8 51.2-10.666666h153.6v-130.133334c0-19.2 14.933333-34.133333 32-34.133333h2.133334c19.2 2.133333 34.133333 17.066667 34.133333 34.133333v166.4c0 10.666667-4.266667 19.2-10.666667 25.6L654.933333 868.266667c-6.4 6.4-14.933333 10.666667-23.466666 8.533333H179.2c-40.533333 0-78.933333-14.933333-106.666667-42.666667-27.733333-27.733333-42.666667-66.133333-42.666666-106.666666v-689.066667c0-40.533333 14.933333-78.933333 42.666666-106.666667 27.733333-27.733333 66.133333-42.666667 106.666667-42.666666h174.933333c17.066667 0 32 12.8 32 29.866666v2.133334c0 19.2-14.933333 34.133333-32 34.133333l-2.133333 2.133333z m294.4 686.933334V776.533333l132.266667-147.2h-123.733334c-2.133333 0-4.266667 0-6.4 2.133334h-2.133333v12.8zM183.466667 326.4c-19.2 0-34.133333-14.933333-34.133334-34.133333 0-21.333333 14.933333-36.266667 34.133334-36.266667h121.6c19.2 0 34.133333 14.933333 34.133333 34.133333 0 19.2-14.933333 34.133333-34.133333 34.133334H183.466667zM524.8 445.866667c0 19.2-14.933333 34.133333-34.133333 34.133333H183.466667c-19.2 0-34.133333-14.933333-34.133334-34.133333 0-19.2 14.933333-34.133333 34.133334-34.133334h305.066666c19.2-2.133333 36.266667 14.933333 36.266667 34.133334zM183.466667 561.066667h121.6c19.2 2.133333 34.133333 19.2 32 38.4-2.133333 17.066667-14.933333 32-32 32H183.466667c-19.2-2.133333-34.133333-19.2-32-38.4 2.133333-17.066667 14.933333-29.866667 32-32zM951.466667 326.4c-19.2 0-34.133333-14.933333-34.133334-34.133333v-10.666667c-81.066667 113.066667-236.8 140.8-352 59.733333-36.266667-25.6-64-59.733333-83.2-98.133333-6.4-17.066667 0-36.266667 17.066667-44.8 17.066667-6.4 36.266667 0 44.8 17.066667 32 66.133333 96 106.666667 168.533333 106.666666 76.8 2.133333 145.066667-44.8 172.8-115.2H832c-19.2-2.133333-34.133333-19.2-32-38.4 2.133333-17.066667 14.933333-32 32-32h128c14.933333 2.133333 27.733333 17.066667 25.6 32v121.6c0 21.333333-14.933333 36.266667-34.133333 36.266667zM925.866667 87.466667c-17.066667 6.4-34.133333-2.133333-42.666667-17.066667-29.866667-70.4-98.133333-115.2-174.933333-113.066667-76.8 0-145.066667 44.8-172.8 115.2h44.8c19.2 0 34.133333 14.933333 34.133333 34.133334s-14.933333 34.133333-34.133333 34.133333h-2.133334v-2.133333h-121.6c-17.066667 0-32-12.8-32-29.866667v-125.866667c0-12.8 6.4-23.466667 17.066667-27.733333 10.666667-6.4 23.466667-6.4 34.133333 0s17.066667 17.066667 17.066667 29.866667v21.333333c44.8-74.666667 128-119.466667 215.466667-117.333333 100.266667 0 192 59.733333 234.666666 153.6 4.266667 8.533333 4.266667 19.2 0 25.6-2.133333 8.533333-8.533333 14.933333-17.066666 19.2z"  horiz-adv-x="1024" />
      
      <glyph glyph-name="jianqu2" unicode="&#59426;" d="M785.066667 424.533333H238.933333c-23.466667 0-40.533333-19.2-40.533333-40.533333s19.2-40.533333 40.533333-40.533333h546.133334c23.466667 0 40.533333 19.2 40.533333 40.533333s-19.2 40.533333-40.533333 40.533333zM512 881.066667C236.8 881.066667 14.933333 659.2 14.933333 384S236.8-113.066667 512-113.066667 1009.066667 108.8 1009.066667 384 787.2 881.066667 512 881.066667z m162.133333-878.933334c-102.4-42.666667-219.733333-42.666667-322.133333 0-49.066667 21.333333-93.866667 51.2-132.266667 89.6-78.933333 76.8-123.733333 181.333333-123.733333 292.266667 0 110.933333 42.666667 215.466667 121.6 294.4 78.933333 78.933333 183.466667 121.6 294.4 121.6 110.933333 0 215.466667-42.666667 294.4-121.6 78.933333-78.933333 121.6-183.466667 121.6-294.4 0-110.933333-42.666667-215.466667-121.6-294.4-38.4-36.266667-83.2-68.266667-132.266667-87.466667z"  horiz-adv-x="1024" />
      
      <glyph glyph-name="jianqu" unicode="&#59427;" d="M64 452.266667h896c23.466667 0 42.666667-19.2 42.666667-42.666667v-4.266667c0-23.466667-19.2-42.666667-42.666667-42.666666H64c-23.466667 0-42.666667 19.2-42.666667 42.666666v4.266667c0 23.466667 19.2 42.666667 42.666667 42.666667z"  horiz-adv-x="1024" />
      
      <glyph glyph-name="shouquanguanli" unicode="&#59428;" d="M343.466667-23.466667H157.866667c-8.533333 0-14.933333 6.4-14.933334 14.933334V793.6c0 8.533333 6.4 14.933333 12.8 14.933333h663.466667c8.533333 0 14.933333-6.4 14.933333-12.8v-236.8c0-21.333333 17.066667-36.266667 38.4-36.266666s38.4 17.066667 38.4 36.266666v234.666667c0 49.066667-40.533333 89.6-89.6 89.6H157.866667C108.8 883.2 68.266667 842.666667 68.266667 793.6v-804.266667c0-49.066667 40.533333-89.6 87.466666-89.6h183.466667c21.333333 0 38.4 17.066667 38.4 38.4s-14.933333 38.4-34.133333 38.4zM266.666667 492.8c-21.333333-2.133333-36.266667-19.2-34.133334-40.533333 2.133333-19.2 17.066667-34.133333 34.133334-34.133334h256c21.333333 2.133333 36.266667 19.2 34.133333 40.533334-2.133333 19.2-17.066667 34.133333-34.133333 34.133333h-256zM750.933333 646.4c0 21.333333-17.066667 38.4-38.4 38.4H266.666667c-21.333333 0-38.4-17.066667-38.4-38.4s17.066667-38.4 38.4-38.4h445.866666c21.333333 2.133333 38.4 17.066667 38.4 38.4zM443.733333 300.8h-179.2c-21.333333-2.133333-36.266667-19.2-34.133333-40.533333 2.133333-19.2 17.066667-34.133333 34.133333-34.133334h179.2c21.333333-2.133333 38.4 14.933333 40.533334 34.133334s-14.933333 38.4-34.133334 40.533333h-6.4zM878.933333 185.6h-57.6c2.133333 4.266667 6.4 8.533333 10.666667 12.8 27.733333 23.466667 44.8 59.733333 44.8 98.133333 0 44.8-19.2 87.466667-53.333333 117.333334-27.733333 23.466667-61.866667 36.266667-98.133334 36.266666-72.533333 0-136.533333-51.2-149.333333-123.733333-8.533333-46.933333 6.4-96 42.666667-128 4.266667-4.266667 6.4-8.533333 10.666666-12.8h-59.733333c-34.133333 0-61.866667-27.733333-59.733333-61.866667v-93.866666c0-19.2 14.933333-36.266667 34.133333-36.266667h362.666667c19.2 0 34.133333 14.933333 34.133333 36.266667v96c-2.133333 32-29.866667 59.733333-61.866667 59.733333zM682.666667 147.2c10.666667 14.933333 12.8 32 4.266666 49.066667-6.4 17.066667-17.066667 32-29.866666 44.8-21.333333 17.066667-29.866667 46.933333-25.6 72.533333 6.4 36.266667 34.133333 64 70.4 72.533333 49.066667 10.666667 98.133333-21.333333 106.666666-70.4 2.133333-6.4 2.133333-12.8 2.133334-19.2 0-21.333333-10.666667-40.533333-25.6-55.466666-12.8-12.8-23.466667-27.733333-29.866667-44.8-10.666667-27.733333 2.133333-57.6 29.866667-68.266667 6.4-2.133333 12.8-4.266667 19.2-4.266667h72.533333v-68.266666H567.466667v68.266666H640c17.066667 0 34.133333 8.533333 42.666667 23.466667zM908.8-32H537.6c-17.066667 2.133333-32-10.666667-34.133333-27.733333-2.133333-17.066667 10.666667-32 27.733333-34.133334H906.666667c17.066667-2.133333 32 10.666667 34.133333 27.733334 2.133333 17.066667-10.666667 32-27.733333 34.133333h-4.266667z"  horiz-adv-x="1024" />
      
      <glyph glyph-name="waibujiedian" unicode="&#59494;" d="M128 768v-768h768V768H128z m-32.028444 64h832.056888c19.171556 0 31.971556-12.8 31.971556-32.028444v-831.943112c0-19.228444-12.8-32.028444-32.028444-32.028444H96.028444c-19.171556 0-31.971556 12.8-31.971555 32.028444V799.971556c0 19.171556 12.8 31.971556 32.028444 31.971555zM574.919111 455.68l25.656889-26.339556-51.029333-51.598222-25.656889 25.656889c-48.241778 48.469333-121.856 51.2-173.226667 6.087111l-77.937778-78.904889c-24.405333-24.291556-31.971556-49.550222-31.971555-83.968s13.653333-67.413333 38.115555-91.648l1.934223-2.048c24.291556-24.348444 57.287111-38.115556 91.704888-38.115555 34.417778 0 57.287111 13.767111 81.521778 38.115555l76.572445 83.057778 52.565333-47.217778-78.848-86.471111a195.128889 195.128889 0 0 0-138.524444-57.685333 195.128889 195.128889 0 0 0-138.808889 57.685333l-1.991111 1.991111a195.982222 195.982222 0 0 0 0 277.845334A6847.715556 6847.715556 0 0 0 306.062222 463.872a196.152889 196.152889 0 0 0 268.8-8.192z m43.975111 270.506667a195.128889 195.128889 0 0 0 138.808889-57.628445l1.991111-1.991111a195.982222 195.982222 0 0 0 0-277.845333c-51.996444-52.792889-79.075556-80.042667-81.066666-81.749334a196.152889 196.152889 0 0 0-268.856889 8.135112l-25.656889 26.339555 51.029333 51.655111 25.656889-25.656889c48.241778-48.469333 121.856-51.2 173.226667-6.087111l77.937777 78.904889c24.405333 24.234667 31.971556 49.493333 31.971556 83.968 0 34.417778-13.653333 67.356444-38.115556 91.648l-1.934222 1.991111a129.308444 129.308444 0 0 1-91.704889 38.115556c-34.360889 0-57.287111-13.710222-81.521777-38.115556l-76.572445-83.057778-52.565333 47.217778 78.848 86.471111a195.128889 195.128889 0 0 0 138.524444 57.685334zM722.033778 41.756444l136.533333 118.101334-137.102222 118.044444v-85.674666h-115.2v-69.859556h115.143111z"  horiz-adv-x="1024" />
      
      <glyph glyph-name="fuzhiwenjian" unicode="&#58915;" d="M638.596211 704.063809q30.628116 0 54.62014-13.272183t41.347956-32.66999 26.544367-41.858425 9.188435-39.81655l0-576.829511q0-29.607178-11.740778-53.088734t-30.628116-39.81655-42.368893-25.52343-46.963111-9.188435l-503.322034 0q-19.397807 0-42.368893 11.230309t-42.879362 29.607178-33.180459 42.368893-13.272183 48.494516l0 568.662014q0 21.439681 10.209372 44.410768t26.544367 42.368893 37.774676 32.159521 44.921236 12.761715l515.57328 0zM578.360917 65.978066q26.544367 0 45.431705 18.376869t18.887338 44.921236-18.887338 45.431705-45.431705 18.887338l-382.851446 0q-26.544367 0-45.431705-18.887338t-18.887338-45.431705 18.887338-44.921236 45.431705-18.376869l382.851446 0zM578.360917 321.212363q26.544367 0 45.431705 18.376869t18.887338 44.921236-18.887338 45.431705-45.431705 18.887338l-382.851446 0q-26.544367 0-45.431705-18.887338t-18.887338-45.431705 18.887338-44.921236 45.431705-18.376869l382.851446 0zM759.0668 896q43.900299 0 80.654038-26.033898t63.808574-64.319043 42.368893-82.695912 15.314058-81.164506l0-542.117647q0-21.439681-12.761715-39.306082t-31.138584-30.628116-39.81655-20.418744-39.81655-7.657029l-4.083749 0 0 609.499501q-8.167498 70.444666-43.900299 108.219342t-94.947159 49.004985l-498.217348 0q1.020937 2.041874 1.020937 7.14656 0 20.418744 12.251246 41.858425t32.159521 38.795613 44.410768 28.586241 49.004985 11.230309l423.688933 0z"  horiz-adv-x="1024" />
      
      <glyph glyph-name="bianji5" unicode="&#59262;" d="M275.2 102.4L533.333333 211.2c4.266667 2.133333 8.533333 4.266667 10.666667 8.533333l435.2 435.2c29.866667 29.866667 32 81.066667 0 110.933334L891.733333 853.333333C861.866667 883.2 810.666667 883.2 780.8 853.333333L345.6 416c-2.133333-2.133333-6.4-6.4-8.533333-10.666667l-108.8-258.133333c-8.533333-17.066667 0-38.4 19.2-46.933333 8.533333-2.133333 19.2-2.133333 27.733333 2.133333zM836.266667 795.733333l87.466666-87.466666-68.266666-68.266667L768 727.466667l68.266667 68.266666zM407.466667 366.933333l305.066666 305.066667 87.466667-87.466667-305.066667-305.066666-151.466666-64 64 151.466666zM964.266667-27.733333H59.733333c-21.333333 0-40.533333-17.066667-40.533333-40.533334 0-21.333333 17.066667-38.4 40.533333-38.4h902.4c21.333333 0 40.533333 17.066667 40.533334 38.4 0 23.466667-17.066667 40.533333-38.4 40.533334z"  horiz-adv-x="1024" />
      
      <glyph glyph-name="bingji" unicode="&#59263;" d="M697.6 652.8c-72.533333 0-142.933333-27.733333-196.266667-74.666667C379.733333 686.933333 194.133333 676.266667 85.333333 554.666667S-12.8 247.466667 108.8 138.666667c110.933333-100.266667 281.6-100.266667 392.533333 0 121.6-108.8 307.2-98.133333 416 23.466666s98.133333 307.2-23.466666 416c-53.333333 46.933333-123.733333 74.666667-196.266667 74.666667z"  horiz-adv-x="1024" />
      
      <glyph glyph-name="chexiao" unicode="&#59264;" d="M721.066667 565.333333H151.466667l142.933333 142.933334c14.933333 14.933333 14.933333 40.533333 0 55.466666-14.933333 14.933333-40.533333 14.933333-55.466667 0L29.866667 554.666667c-8.533333-6.4-10.666667-17.066667-12.8-27.733334 0-10.666667 4.266667-21.333333 12.8-27.733333l209.066666-211.2c14.933333-17.066667 38.4-19.2 55.466667-4.266667s19.2 38.4 4.266667 55.466667l-4.266667 4.266667-142.933333 142.933333h571.733333c113.066667-4.266667 202.666667-98.133333 200.533333-213.333333a209.066667 209.066667 0 0 0-200.533333-200.533334H371.2c-21.333333-2.133333-38.4-21.333333-36.266667-42.666666 2.133333-19.2 17.066667-34.133333 36.266667-36.266667h349.866667c157.866667 4.266667 281.6 134.4 277.333333 292.266667-2.133333 153.6-125.866667 275.2-277.333333 279.466666z"  horiz-adv-x="1024" />
      
      <glyph glyph-name="biaogezhengchang" unicode="&#59265;" d="M1002.666667 298.666667V595.2 832c2.133333 21.333333-12.8 40.533333-34.133334 42.666667H57.6C34.133333 872.533333 19.2 853.333333 21.333333 832v-896c-2.133333-21.333333 12.8-40.533333 34.133334-42.666667h910.933333c21.333333 2.133333 36.266667 21.333333 36.266667 42.666667V298.666667z m-614.4 42.666666V554.666667h228.266666v-213.333334H388.266667z m228.266666-85.333333v-277.333333H388.266667V256h228.266666zM91.733333 554.666667H320v-213.333334H91.733333V554.666667z m595.2 0h245.333334v-213.333334H686.933333V554.666667zM932.266667 789.333333v-149.333333H91.733333V789.333333h840.533334zM91.733333 256H320v-277.333333H91.733333V256z m595.2-277.333333V256h245.333334v-277.333333H686.933333z"  horiz-adv-x="1024" />
      
      <glyph glyph-name="daohang-shujuyuan" unicode="&#59266;" d="M512 876.8C238.933333 876.8 19.2 657.066667 19.2 384S238.933333-108.8 512-108.8 1004.8 110.933333 1004.8 384 785.066667 876.8 512 876.8z m185.6-441.6h-145.066667V576c38.4 2.133333 76.8 10.666667 113.066667 23.466667 19.2-53.333333 29.866667-108.8 32-164.266667z m-64 349.866667c42.666667-12.8 85.333333-34.133333 121.6-59.733334-17.066667-12.8-34.133333-23.466667-53.333333-32-17.066667 34.133333-40.533333 66.133333-68.266667 91.733334zM554.666667 650.666667V755.2c36.266667-19.2 66.133333-51.2 83.2-87.466667-27.733333-8.533333-55.466667-14.933333-83.2-17.066666z m179.2-509.866667c25.6 70.4 38.4 145.066667 40.533333 219.733333h157.866667c-6.4-100.266667-46.933333-196.266667-117.333334-268.8-27.733333 19.2-53.333333 36.266667-81.066666 49.066667z m38.4 294.4c-4.266667 66.133333-17.066667 130.133333-38.4 192 27.733333 14.933333 55.466667 32 81.066666 51.2 64-66.133333 104.533333-151.466667 115.2-243.2h-157.866666zM552.533333 192v168.533333h145.066667c-2.133333-66.133333-12.8-130.133333-32-192-36.266667 12.8-74.666667 19.2-113.066667 23.466667z m149.333334-117.333333c19.2-8.533333 36.266667-19.2 53.333333-32-36.266667-25.6-78.933333-46.933333-121.6-59.733334 27.733333 25.6 51.2 57.6 68.266667 91.733334z m-149.333334-61.866667v104.533333c27.733333-2.133333 57.6-8.533333 83.2-17.066666-17.066667-36.266667-44.8-68.266667-83.2-87.466667z m-260.266666 128c-27.733333-14.933333-55.466667-32-81.066667-49.066667-70.4 72.533333-113.066667 168.533333-119.466667 268.8h157.866667c4.266667-74.666667 17.066667-149.333333 42.666667-219.733333z m29.866666 552.533333c-19.2 8.533333-36.266667 19.2-53.333333 32 36.266667 25.6 78.933333 46.933333 121.6 59.733334-27.733333-25.6-51.2-57.6-68.266667-91.733334z m157.866667-258.133333h-153.6c4.266667 55.466667 14.933333 110.933333 32 164.266667 40.533333-12.8 81.066667-21.333333 123.733333-23.466667v-140.8z m-384 0c10.666667 91.733333 51.2 177.066667 115.2 243.2 25.6-19.2 51.2-36.266667 81.066667-49.066667-21.333333-61.866667-34.133333-125.866667-38.4-192l-157.866667-2.133333z m226.133333-360.533333c17.066667-34.133333 40.533333-66.133333 70.4-91.733334-44.8 12.8-85.333333 34.133333-121.6 59.733334 14.933333 12.8 32 23.466667 51.2 32z m2.133334 285.866666h155.733333V192c-42.666667-2.133333-83.2-10.666667-123.733333-23.466667-19.2 61.866667-29.866667 125.866667-32 192z m155.733333-241.066666v-110.933334c-40.533333 19.2-74.666667 51.2-93.866667 91.733334 32 10.666667 61.866667 17.066667 93.866667 19.2z m0 640v-108.8c-32 2.133333-64 8.533333-93.866667 17.066666 19.2 40.533333 53.333333 72.533333 93.866667 91.733334z"  horiz-adv-x="1024" />
      
      <glyph glyph-name="biaogexuanzhong" unicode="&#59267;" d="M386.133333 571.733333h228.266667v-213.333333H386.133333zM386.133333 273.066667h228.266667v-213.333334H386.133333zM160 571.733333h157.866667v-213.333333H160zM684.8 571.733333h174.933333v-213.333333h-174.933333zM160 273.066667h157.866667v-213.333334H160zM684.8 273.066667h174.933333v-213.333334h-174.933333zM1002.666667 595.2V832c2.133333 21.333333-12.8 40.533333-34.133334 42.666667h-17.066666V876.8H85.333333V874.666667H57.6C34.133333 872.533333 19.2 853.333333 21.333333 832v-896c-2.133333-21.333333 12.8-40.533333 34.133334-42.666667h910.933333c21.333333 2.133333 36.266667 21.333333 36.266667 42.666667V296.533333v298.666667zM91.733333-21.333333V657.066667h840.533334V-21.333333H91.733333z"  horiz-adv-x="1024" />
      
      <glyph glyph-name="daochu" unicode="&#59268;" d="M486.4 864c14.933333 14.933333 38.4 14.933333 53.333333 0l170.666667-170.666667c12.8-14.933333 10.666667-40.533333-4.266667-53.333333-14.933333-12.8-34.133333-12.8-49.066666 0l-106.666667 106.666667v-633.6c0-21.333333-17.066667-38.4-38.4-38.4s-38.4 17.066667-38.4 38.4V744.533333l-106.666667-106.666666c-14.933333-14.933333-38.4-14.933333-53.333333 0s-14.933333 38.4 0 53.333333l172.8 172.8z m477.866667-620.8c-21.333333 0-38.4-17.066667-38.4-38.4v-213.333333c0-12.8-10.666667-23.466667-23.466667-23.466667H119.466667c-12.8 0-21.333333 10.666667-23.466667 21.333333v213.333334c2.133333 21.333333-14.933333 38.4-34.133333 40.533333-21.333333 2.133333-38.4-14.933333-40.533334-34.133333V-40.533333C21.333333-76.8 51.2-106.666667 89.6-106.666667h844.8c38.4 0 68.266667 29.866667 68.266667 68.266667V204.8c0 21.333333-17.066667 38.4-38.4 38.4z"  horiz-adv-x="1024" />
      
      <glyph glyph-name="daohang-shujuji" unicode="&#59269;" d="M334.933333 87.466667m-40.533333 0a40.533333 40.533333 0 1 1 81.066667 0 40.533333 40.533333 0 1 1-81.066667 0ZM334.933333 689.066667m-40.533333 0a40.533333 40.533333 0 1 1 81.066667 0 40.533333 40.533333 0 1 1-81.066667 0ZM817.066667 878.933333h-597.333334C179.2 878.933333 145.066667 846.933333 145.066667 806.4v-842.666667c0-40.533333 34.133333-74.666667 74.666666-74.666666h597.333334c40.533333 0 74.666667 34.133333 74.666666 74.666666V806.4C889.6 846.933333 857.6 878.933333 817.066667 878.933333zM810.666667-23.466667H224V198.4H810.666667v-221.866667zM810.666667 277.333333H224V499.2H810.666667V277.333333z m0 300.8H224V800H810.666667v-221.866667zM334.933333 388.266667m-40.533333 0a40.533333 40.533333 0 1 1 81.066667 0 40.533333 40.533333 0 1 1-81.066667 0Z"  horiz-adv-x="1024" />
      
      <glyph glyph-name="diannaoduan" unicode="&#59270;" d="M938.666667 797.866667H85.333333C46.933333 800 17.066667 768 17.066667 731.733333V192c0-38.4 29.866667-68.266667 68.266666-68.266667h386.133334v-113.066666h-157.866667c-21.333333 0-40.533333-17.066667-40.533333-40.533334s17.066667-40.533333 40.533333-40.533333h392.533333c21.333333 0 40.533333 17.066667 40.533334 40.533333s-17.066667 40.533333-40.533334 40.533334h-157.866666v113.066666H938.666667c38.4 0 68.266667 29.866667 68.266666 68.266667V729.6c0 38.4-29.866667 68.266667-68.266666 68.266667 2.133333 0 2.133333 0 0 0zM96 202.666667V718.933333h834.133333v-516.266666H96z"  horiz-adv-x="1024" />
      
      <glyph glyph-name="fanhui1" unicode="&#59271;" d="M311.466667 384l458.666666-409.6c19.2-17.066667 19.2-44.8 4.266667-64-17.066667-17.066667-44.8-19.2-64-4.266667L221.866667 341.333333c-4.266667 2.133333-10.666667 6.4-12.8 10.666667-17.066667 19.2-17.066667 44.8 0 64 4.266667 4.266667 8.533333 8.533333 12.8 10.666667L708.266667 864c19.2 17.066667 46.933333 14.933333 64-4.266667 17.066667-19.2 14.933333-46.933333-4.266667-64L311.466667 384z"  horiz-adv-x="1024" />
      
      <glyph glyph-name="gengduo" unicode="&#59272;" d="M529.066667-106.666667c44.8 0 81.066667 36.266667 81.066666 81.066667 0 44.8-36.266667 81.066667-81.066666 81.066667S448 21.333333 448-25.6c0-44.8 36.266667-81.066667 81.066667-81.066667zM529.066667 302.933333c44.8 0 81.066667 36.266667 81.066666 81.066667s-36.266667 81.066667-81.066666 81.066667S448 428.8 448 384c0-44.8 36.266667-81.066667 81.066667-81.066667zM529.066667 710.4c44.8 0 81.066667 36.266667 81.066666 81.066667S576 874.666667 531.2 874.666667 448 838.4 448 793.6c0-44.8 36.266667-83.2 81.066667-83.2z"  horiz-adv-x="1024" />
      
      <glyph glyph-name="fabu1" unicode="&#59273;" d="M998.4 838.4v2.133333 4.266667V851.2v4.266667c0 2.133333-2.133333 4.266667-2.133333 6.4 0 2.133333-2.133333 4.266667-4.266667 4.266666l-6.4 6.4c-2.133333 2.133333-4.266667 2.133333-6.4 4.266667h-4.266667l-4.266666 2.133333h-8.533334-17.066666c-2.133333 0-4.266667-2.133333-6.4-2.133333L44.8 424.533333c-19.2-10.666667-27.733333-34.133333-17.066667-53.333333 4.266667-8.533333 8.533333-12.8 14.933334-17.066667l213.333333-113.066666c-6.4-6.4-10.666667-14.933333-10.666667-25.6v-277.333334c0-21.333333 17.066667-38.4 38.4-38.4s38.4 17.066667 38.4 38.4v277.333334c0 8.533333-2.133333 14.933333-6.4 21.333333 4.266667 2.133333 6.4 6.4 8.533334 10.666667 10.666667 19.2 2.133333 40.533333-14.933334 51.2l-166.4 89.6L810.666667 727.466667 403.2 247.466667c-14.933333-14.933333-12.8-38.4 2.133333-53.333334s38.4-12.8 53.333334 2.133334l2.133333 2.133333 448 524.8-93.866667-691.2-234.666666 115.2c-19.2 8.533333-40.533333 2.133333-51.2-17.066667-8.533333-19.2-2.133333-40.533333 17.066666-51.2l279.466667-136.533333c4.266667-2.133333 8.533333-2.133333 12.8-4.266667h6.4c19.2 0 34.133333 14.933333 36.266667 32L996.266667 832l2.133333 6.4z"  horiz-adv-x="1024" />
      
      <glyph glyph-name="fenxiang" unicode="&#59274;" d="M840.533333 217.6c-55.466667 0-104.533333-27.733333-134.4-72.533333L448 328.533333c10.666667 44.8 8.533333 91.733333-10.666667 134.4l281.6 140.8c59.733333-66.133333 160-74.666667 228.266667-14.933333s74.666667 160 14.933333 228.266667C902.4 885.333333 802.133333 891.733333 733.866667 832c-34.133333-29.866667-55.466667-74.666667-55.466667-121.6 0-12.8 0-23.466667 4.266667-36.266667l-288-145.066666c-81.066667 87.466667-219.733333 91.733333-305.066667 8.533333S-2.133333 320 78.933333 232.533333s219.733333-91.733333 305.066667-8.533333c10.666667 10.666667 19.2 21.333333 27.733333 32l264.533334-187.733333v-10.666667c0-89.6 72.533333-162.133333 162.133333-162.133333s162.133333 72.533333 162.133333 162.133333-70.4 160-160 160z m0 576c46.933333 0 83.2-36.266667 83.2-83.2s-36.266667-83.2-83.2-83.2-83.2 36.266667-83.2 83.2 38.4 83.2 83.2 83.2zM236.8 243.2c-76.8 0-136.533333 61.866667-136.533333 138.666667s61.866667 136.533333 138.666666 136.533333 136.533333-61.866667 136.533334-136.533333c0-76.8-61.866667-138.666667-138.666667-138.666667z m603.733333-270.933333c-46.933333 0-83.2 36.266667-83.2 83.2s36.266667 83.2 83.2 83.2 83.2-36.266667 83.2-83.2c0-44.8-36.266667-83.2-83.2-83.2z"  horiz-adv-x="1024" />
      
      <glyph glyph-name="duomeiti" unicode="&#59275;" d="M145.066667 614.4H83.2c-34.133333 0-61.866667-27.733333-61.866667-61.866667v-490.666666C21.333333 27.733333 49.066667 0 83.2 0h674.133333c34.133333 0 61.866667 27.733333 61.866667 61.866667v61.866666H145.066667v490.666667zM940.8 797.866667H266.666667c-34.133333 0-61.866667-27.733333-61.866667-61.866667v-490.666667c0-34.133333 27.733333-61.866667 61.866667-61.866666h674.133333c34.133333 0 61.866667 27.733333 61.866667 61.866666v490.666667c0 34.133333-27.733333 61.866667-61.866667 61.866667z m-234.666667-313.6c0-2.133333-2.133333-2.133333-4.266666-4.266667l-149.333334-100.266667c-4.266667-4.266667-12.8-4.266667-17.066666 2.133334L533.333333 384V590.933333c0 6.4 6.4 12.8 12.8 12.8 2.133333 0 4.266667 0 6.4-2.133333l149.333334-100.266667c6.4-4.266667 6.4-10.666667 4.266666-17.066666z"  horiz-adv-x="1024" />
      
      <glyph glyph-name="fenceng" unicode="&#59276;" d="M27.733333 507.733333l465.066667-266.666666c6.4-4.266667 12.8-4.266667 19.2-4.266667 6.4 0 12.8 2.133333 19.2 4.266667l465.066667 266.666666c10.666667 6.4 19.2 19.2 19.2 32s-6.4 25.6-19.2 32L529.066667 838.4c-10.666667 6.4-25.6 6.4-36.266667 0L27.733333 571.733333c-10.666667-6.4-19.2-19.2-19.2-32 2.133333-12.8 8.533333-25.6 19.2-32z m91.733334 32L512 765.866667l390.4-226.133334L512 315.733333 119.466667 539.733333zM994.133333 420.266667c-10.666667 6.4-25.6 6.4-36.266666 0L512 164.266667l-445.866667 256c-10.666667 6.4-25.6 6.4-36.266666 0s-19.2-19.2-19.2-32 6.4-25.6 19.2-32l465.066666-266.666667c6.4-4.266667 12.8-4.266667 19.2-4.266667 6.4 0 12.8 2.133333 19.2 4.266667l465.066667 266.666667c10.666667 6.4 19.2 19.2 19.2 32-4.266667 12.8-10.666667 25.6-23.466667 32zM985.6 262.4c-8.533333 2.133333-19.2 2.133333-27.733333-4.266667L512 2.133333l-445.866667 256c-10.666667 6.4-25.6 6.4-36.266666 0s-19.2-19.2-19.2-32 6.4-25.6 19.2-32l465.066666-266.666666c6.4-4.266667 12.8-4.266667 19.2-4.266667 6.4 0 12.8 2.133333 19.2 4.266667l465.066667 266.666666c17.066667 10.666667 23.466667 32 12.8 49.066667-8.533333 10.666667-17.066667 17.066667-25.6 19.2z"  horiz-adv-x="1024" />
      
      <glyph glyph-name="genggaileixing" unicode="&#59277;" d="M556.8 61.866667c25.6 0 46.933333 21.333333 46.933333 46.933333V420.266667c0 25.6-21.333333 46.933333-46.933333 46.933333-25.6 0-46.933333-21.333333-46.933333-46.933333V106.666667c0-23.466667 21.333333-44.8 46.933333-44.8zM802.133333 61.866667c25.6 0 46.933333 21.333333 46.933334 46.933333v640c2.133333 25.6-17.066667 46.933333-42.666667 49.066667-25.6 2.133333-46.933333-17.066667-49.066667-42.666667v-646.4c0-25.6 19.2-46.933333 44.8-46.933333zM311.466667 61.866667c25.6 0 46.933333 21.333333 46.933333 46.933333V582.4c2.133333 25.6-17.066667 46.933333-42.666667 49.066667-25.6 2.133333-46.933333-17.066667-49.066666-42.666667v-480c0-25.6 21.333333-46.933333 44.8-46.933333zM955.733333-14.933333H115.2V827.733333C115.2 853.333333 93.866667 874.666667 68.266667 874.666667S21.333333 853.333333 21.333333 827.733333v-889.6C21.333333-85.333333 42.666667-106.666667 68.266667-106.666667h887.466666c25.6 2.133333 44.8 23.466667 42.666667 49.066667-2.133333 23.466667-21.333333 40.533333-42.666667 42.666667z"  horiz-adv-x="1024" />
      
      <glyph glyph-name="dingdanjine" unicode="&#59534;" d="M981.333333 439.466667L539.733333 878.933333c-14.933333 14.933333-40.533333 14.933333-55.466666 0L42.666667 439.466667c-14.933333-14.933333-14.933333-40.533333 0-55.466667 14.933333-14.933333 40.533333-14.933333 55.466666 0L512 795.733333 923.733333 384c14.933333-14.933333 40.533333-14.933333 55.466667 0 17.066667 12.8 17.066667 38.4 2.133333 55.466667zM857.6 298.66666699999996c-21.333333 0-38.4-17.066667-38.4-40.533334v-270.933333H204.8V260.266667c0 21.333333-17.066667 40.533333-38.4 40.533333s-40.533333-17.066667-40.533333-38.4v-273.066667c0-42.666667 36.266667-78.933333 78.933333-78.933333h614.4c42.666667 0 78.933333 36.266667 78.933333 78.933333V260.266667c-2.133333 21.333333-19.2 38.4-40.533333 38.4z m-556.8 72.533333v-4.266667c0-21.333333 17.066667-36.266667 36.266667-36.266666h134.4v-70.4h-98.133334c-21.333333 0-38.4-17.066667-38.4-38.4v-4.266667c0-21.333333 17.066667-36.266667 36.266667-36.266667H469.333333v-91.733333c0-21.333333 17.066667-38.4 40.533334-38.4s40.533333 17.066667 40.533333 38.4v91.733333h98.133333c21.333333 0 36.266667 17.066667 38.4 36.266667v4.266667c0 21.333333-17.066667 38.4-38.4 38.4h-98.133333v70.4h134.4c21.333333 0 36.266667 17.066667 36.266667 36.266666v4.266667c0 21.333333-17.066667 38.4-38.4 38.4h-147.2l2.133333 2.133333 93.866667 93.866667c14.933333 14.933333 14.933333 40.533333 0 55.466667-14.933333 14.933333-40.533333 14.933333-55.466667 0l-64-66.133334-64 66.133334c-14.933333 14.933333-40.533333 14.933333-55.466667 0-14.933333-14.933333-14.933333-40.533333 0-55.466667l93.866667-93.866667 2.133333-2.133333h-149.333333c-21.333333 0-38.4-17.066667-38.4-38.4z"  horiz-adv-x="1024" />
      
      <glyph glyph-name="gongzuotai" unicode="&#59279;" d="M810.666667 573.866667l-174.933334-238.933334c-6.4-8.533333-14.933333-12.8-25.6-12.8s-21.333333 6.4-25.6 14.933334l-149.333333 219.733333-170.666667-262.4c-6.4-8.533333-17.066667-14.933333-27.733333-14.933333-6.4 0-12.8 2.133333-17.066667 4.266666-14.933333 10.666667-19.2 29.866667-10.666666 44.8L405.333333 633.6c6.4 8.533333 14.933333 14.933333 25.6 14.933333s21.333333-4.266667 25.6-14.933333l149.333334-221.866667 145.066666 202.666667c10.666667 14.933333 29.866667 17.066667 44.8 8.533333h2.133334c14.933333-6.4 21.333333-23.466667 17.066666-38.4 0-4.266667-2.133333-6.4-4.266666-10.666666z m125.866666-371.2c0-36.266667-27.733333-64-61.866666-66.133334H151.466667c-36.266667 0-64 27.733333-66.133334 61.866667V704c0 36.266667 27.733333 64 64 64H870.4c36.266667 0 64-27.733333 66.133333-61.866667v-503.466666z m-64 631.466666H151.466667C81.066667 834.133333 21.333333 776.533333 21.333333 704v-501.333333c0-72.533333 59.733333-130.133333 130.133334-130.133334h326.4v-64h-119.466667c-17.066667 0-32-14.933333-32-32s14.933333-32 32-32h305.066667c17.066667 0 32 14.933333 32 32s-14.933333 32-32 32h-119.466667v64h326.4c72.533333 0 130.133333 57.6 130.133333 130.133334V704c2.133333 72.533333-57.6 130.133333-128 130.133333z"  horiz-adv-x="1024" />
      
      <glyph glyph-name="gongkai" unicode="&#59280;" d="M275.2 394.666667c-21.333333-2.133333-38.4-21.333333-36.266667-42.666667 2.133333-19.2 17.066667-36.266667 36.266667-36.266667h168.533333c21.333333 2.133333 38.4 21.333333 36.266667 42.666667-2.133333 19.2-17.066667 36.266667-36.266667 36.266667h-168.533333zM742.4 490.666667c0 21.333333-14.933333 40.533333-38.4 40.533333H277.333333c-21.333333-2.133333-38.4-21.333333-36.266666-42.666667 2.133333-19.2 17.066667-36.266667 36.266666-36.266666h426.666667c21.333333 0 38.4 17.066667 38.4 38.4zM704 678.4H277.333333c-21.333333 0-40.533333-17.066667-40.533333-40.533333S256 597.333333 277.333333 597.333333h426.666667c21.333333 2.133333 38.4 21.333333 36.266667 42.666667 0 19.2-17.066667 36.266667-36.266667 38.4zM512 25.6H172.8V802.133333h657.066667v-407.466666c2.133333-21.333333 21.333333-38.4 42.666666-36.266667 19.2 2.133333 36.266667 17.066667 36.266667 36.266667V806.4c0 40.533333-34.133333 74.666667-74.666667 72.533333H168.533333C128 878.933333 93.866667 846.933333 93.866667 806.4V21.333333c0-40.533333 34.133333-74.666667 74.666666-74.666666H512c21.333333-2.133333 40.533333 14.933333 42.666667 36.266666 2.133333 21.333333-14.933333 40.533333-36.266667 42.666667H512zM887.466667 147.2H637.866667V149.333333c0 17.066667 2.133333 32 8.533333 49.066667 6.4 14.933333 14.933333 27.733333 25.6 40.533333 10.666667 10.666667 21.333333 19.2 34.133333 25.6h2.133334c27.733333 12.8 61.866667 12.8 89.6 0 14.933333-6.4 27.733333-14.933333 38.4-25.6 8.533333-10.666667 17.066667-23.466667 23.466666-36.266666 4.266667-10.666667 14.933333-14.933333 25.6-14.933334h6.4c8.533333 0 17.066667 4.266667 21.333334 10.666667 4.266667 6.4 4.266667 12.8 4.266666 21.333333v2.133334c-8.533333 21.333333-21.333333 40.533333-38.4 55.466666-14.933333 17.066667-34.133333 29.866667-55.466666 38.4-42.666667 19.2-93.866667 19.2-136.533334 0-21.333333-8.533333-40.533333-23.466667-55.466666-38.4-17.066667-17.066667-29.866667-36.266667-38.4-57.6-8.533333-21.333333-14.933333-46.933333-12.8-70.4v-224c0-25.6 19.2-44.8 44.8-44.8h262.4c10.666667 0 23.466667 4.266667 29.866666 12.8 8.533333 8.533333 12.8 21.333333 12.8 32v179.2c0 23.466667-19.2 42.666667-42.666666 42.666667z m-14.933334-209.066667h-234.666666v151.466667h100.266666c-14.933333-6.4-23.466667-21.333333-23.466666-36.266667 0-10.666667 4.266667-21.333333 12.8-29.866666v-36.266667c2.133333-14.933333 14.933333-27.733333 29.866666-25.6 12.8 2.133333 23.466667 12.8 25.6 25.6v36.266667c17.066667 14.933333 17.066667 40.533333 2.133334 57.6-4.266667 4.266667-8.533333 6.4-12.8 8.533333H874.666667l-2.133334-151.466667z"  horiz-adv-x="1024" />
      
      <glyph glyph-name="gouxuan" unicode="&#59537;" d="M736 595.2c-10.666667 0-19.2-4.266667-27.733333-10.666667L398.933333 273.06666700000005 320 411.733333c-10.666667 19.2-34.133333 25.6-53.333333 17.066667s-25.6-34.133333-17.066667-53.333333c0 0 0-2.133333 2.133333-2.133334l104.533334-181.333333c6.4-12.8 19.2-19.2 34.133333-19.2 6.4 0 12.8 2.133333 19.2 4.266667 4.266667 2.133333 6.4 4.266667 8.533333 6.4l345.6 345.6c14.933333 14.933333 14.933333 40.533333 0 55.466666-6.4 8.533333-17.066667 12.8-27.733333 10.666667zM512 878.933333C238.933333 878.933333 17.066667 657.066667 17.066667 384S238.933333-110.93333299999995 512-110.93333299999995 1006.933333 110.93333299999995 1006.933333 384C1006.933333 657.066667 785.066667 878.933333 512 878.933333zM674.133333 0c-104.533333-44.8-221.866667-44.8-324.266666 0-213.333333 89.6-313.6 334.933333-224 548.266667S460.8 861.866667 674.133333 772.266667s313.6-334.933333 224-548.266667c-21.333333-51.2-51.2-96-89.6-134.4-38.4-38.4-85.333333-68.266667-134.4-89.6z"  horiz-adv-x="1024" />
      
      </font>
</defs>
</svg>
